<?xml version="1.0" standalone="no"?>
<!DOCTYPE svg PUBLIC "-//W3C//DTD SVG 1.1//EN" "http://www.w3.org/Graphics/SVG/1.1/DTD/svg11.dtd" >
<svg xmlns="http://www.w3.org/2000/svg">
<metadata>
Created by FontPrep 20130207 at Sat Jun 28 10:10:14 2014
 By Max Quattromani
Copyright (c) 2014, Cooper Hewitt Smithsonian Design Museum (cooperhewitt.org)
</metadata>
<defs>
<font id="10f056fa985f6a9aa76248d076e16a54" horiz-adv-x='1024' >
  <font-face 
    font-family="CooperHewitt-Semibold"
    font-weight="709"
    font-stretch="normal"
    units-per-em="2048"
    panose-1="0 0 0 0 0 0 0 0 0 0"
    ascent="1536"
    descent="-512"
    x-height="1085"
    cap-height="1597"
    bbox="-492 -457 2832 1978.01"
    underline-thickness="102"
    underline-position="-102"
    unicode-range="U+0020-F222"
  />
<missing-glyph horiz-adv-x="1974" 
d="M1079 799l563 -563v1126zM895 799l-563 563v-1126zM416 1462l571 -571l572 571h-1143zM987 707l-571 -572h1143zM188 0v1597h1598v-1597h-1598z" />
    <glyph glyph-name=".notdef" horiz-adv-x="1974" 
d="M1079 799l563 -563v1126zM895 799l-563 563v-1126zM416 1462l571 -571l572 571h-1143zM987 707l-571 -572h1143zM188 0v1597h1598v-1597h-1598z" />
    <glyph glyph-name=".null" horiz-adv-x="0" 
 />
    <glyph glyph-name="nonmarkingreturn" horiz-adv-x="681" 
 />
    <glyph glyph-name="space" unicode=" " horiz-adv-x="409" 
 />
    <glyph glyph-name="exclam" unicode="!" horiz-adv-x="512" 
d="M401 289v-289h-290v289h290zM90 1597h332l-74 -1155h-184z" />
    <glyph glyph-name="quotedbl" unicode="&#x22;" horiz-adv-x="845" 
d="M469 1597h266l-45 -626h-203zM111 1597h266l-19 -626h-204z" />
    <glyph glyph-name="numbersign" unicode="#" horiz-adv-x="1228" 
d="M537 940l-56 -283h209l55 283h-208zM154 940v236h192l84 421h236l-82 -421h209l81 421h238l-84 -421h148v-236h-193l-55 -283h147v-235h-194l-82 -422h-236l82 422h-209l-82 -422h-237l82 422h-146v235h193l55 283h-147z" />
    <glyph glyph-name="dollar" unicode="$" horiz-adv-x="1228" 
d="M385 1096q0 -66 36 -106t122 -60l82 342h-19q-94 0 -157 -45t-64 -121v-10zM627 328q102 0 165 47q62 47 62 129v10q0 129 -162 170l-84 -356h19zM1116 1038v-28h-268q0 104 -37 170l-68 -283q195 -33 290 -117t95 -245v-19q0 -196 -131 -304t-374 -108q-47 0 -68 2
l-55 -229h-209l65 273q-256 102 -256 409v12h271q0 -100 47 -163l74 309q-197 35 -287 119t-90 239v19q0 190 135 296t364 105l62 -2l55 227h209l-66 -268q242 -98 242 -414z" />
    <glyph glyph-name="percent" unicode="%" horiz-adv-x="1972" 
d="M608 1251q0 78 -46 123t-120 45h-12q-74 0 -119 -45t-45 -123v-28q0 -78 45 -124t119 -46h12q74 0 120 46t46 124v28zM1364 346q0 -78 45 -123t119 -45h12q74 0 120 45t46 123v29q0 78 -46 124t-120 46h-12q-74 0 -119 -46t-45 -124v-29zM1161 373q-1 178 103 276
q104 99 270 99t270 -98t105 -277v-23q-1 -178 -105 -277t-270 -99t-269 98q-103 100 -104 278v23zM921 1321q-69 0 -116 8q6 -39 6 -82v-22q0 -179 -104 -277q-105 -98 -271 -98t-269 98t-104 277v22q-1 177 103 277t270 100q94 0 176 -35q139 -51 353 -51q117 0 239 22
t178 44v-138l-610 -1466h-237l557 1341q-102 -20 -171 -20z" />
    <glyph glyph-name="ampersand" unicode="&#x26;" horiz-adv-x="1394" 
d="M406 1257v-14q0 -117 96 -242q102 61 155 115t54 127v14q0 61 -39 101t-107 41h-14q-68 0 -107 -40q-38 -41 -38 -102zM561 207h10q133 0 234 69l-359 414q-119 -98 -118 -227v-14q0 -113 59 -177t174 -65zM538 -27q-234 0 -360 123q-125 123 -125 330v23q0 256 236 423
q-80 98 -117 180t-37 193v23q1 156 107 256t316 100t316 -100t107 -256v-23q0 -156 -93 -247t-233 -173l310 -354q68 145 67 332v6h281v-6q0 -311 -172 -537l231 -266h-325l-86 96q-189 -123 -423 -123z" />
    <glyph glyph-name="quotesingle" unicode="'" horiz-adv-x="512" 
d="M111 1597h290l-43 -626h-204z" />
    <glyph glyph-name="parenleft" unicode="(" horiz-adv-x="716" 
d="M86 717v41q0 324 77 536t226 426h279q-152 -225 -233 -447t-81 -515v-41q0 -293 81 -515t233 -448h-279q-151 213 -227 426t-76 537z" />
    <glyph glyph-name="parenright" unicode=")" horiz-adv-x="716" 
d="M631 758v-41q0 -324 -77 -537t-226 -426h-279q152 222 233 446t80 517v41q0 293 -80 516t-233 446h279q150 -214 226 -426t77 -536z" />
    <glyph glyph-name="asterisk" unicode="*" horiz-adv-x="829" 
d="M713 967l-129 -95l-158 234l113 82zM766 1440l51 -152l-272 -76l-43 131zM246 872l-129 95l174 221l112 -82zM12 1288l51 152l265 -97l-43 -131zM336 1638h158l-11 -280h-137z" />
    <glyph glyph-name="plus" unicode="+" horiz-adv-x="1228" 
d="M494 1323h241v-403h404v-242h-404v-404h-241v404h-404v242h404v403z" />
    <glyph glyph-name="comma" unicode="," horiz-adv-x="512" 
d="M401 289v-228q0 -338 -313 -337v139q145 0 170 137h-147v289h290z" />
    <glyph glyph-name="hyphen" unicode="-" horiz-adv-x="706" 
d="M82 600v234h543v-234h-543z" />
    <glyph glyph-name="period" unicode="." horiz-adv-x="512" 
d="M401 289v-289h-290v289h290z" />
    <glyph glyph-name="slash" unicode="/" horiz-adv-x="794" 
d="M764 1720l-471 -1966h-262l471 1966h262z" />
    <glyph glyph-name="zero" unicode="0" horiz-adv-x="1228" 
d="M854 1135q0 250 -236 249h-8q-236 0 -235 -249v-672q0 -250 235 -250h8q236 0 236 250v672zM1126 455q0 -217 -130 -349t-382 -133q-252 0 -382 132t-130 350v688q0 217 130 349t382 132t382 -132t130 -349v-688z" />
    <glyph glyph-name="one" unicode="1" horiz-adv-x="1228" 
d="M1143 0h-1016v240h373v1020l-291 -197l-133 199l497 340h197v-1362h373v-240z" />
    <glyph glyph-name="two" unicode="2" horiz-adv-x="1228" 
d="M1133 240v-240h-1037v170l641 696q68 72 96 126t27 124v21q0 119 -66 183t-171 64h-17q-119 0 -179 -74t-60 -245h-271v43q0 516 518 516q258 0 388 -127t131 -311v-35q0 -129 -41 -216t-142 -196l-461 -501l144 2h500z" />
    <glyph glyph-name="three" unicode="3" horiz-adv-x="1228" 
d="M356 512q0 -299 248 -299h21q104 0 175 59t70 177v24q0 109 -64 166q-65 57 -173 57h-223v238h217q109 0 171 53t62 160v18q0 98 -65 159q-66 60 -170 60h-21q-119 0 -178 -74t-59 -245h-271v43q0 516 518 516q258 0 388 -126t131 -300v-37q0 -242 -203 -346
q213 -104 213 -356v-37q0 -180 -138 -314q-137 -134 -395 -134t-391 132q-133 133 -133 379v27h270z" />
    <glyph glyph-name="four" unicode="4" horiz-adv-x="1228" 
d="M696 610v408l4 145l-352 -555l127 2h221zM967 0h-271v373h-637v186l652 1038h256v-987h202v-237h-202v-373z" />
    <glyph glyph-name="five" unicode="5" horiz-adv-x="1228" 
d="M86 512h270q0 -299 248 -299h21q106 0 176 68t69 206v29q0 139 -71 207q-72 68 -187 68h-14q-84 0 -159 -40t-109 -114l-232 78l39 882h985v-239h-755l-19 -397q127 70 279 69q240 0 378 -136t138 -376v-33q-1 -239 -141 -375t-395 -136t-388 132q-133 133 -133 379v27z
" />
    <glyph glyph-name="six" unicode="6" horiz-adv-x="1228" 
d="M623 768q-82 0 -152 -41t-111 -115v-80q0 -150 72 -234t180 -85h13q111 0 181 70t68 190v39q0 128 -66 192t-175 64h-10zM1067 1624v-244q-365 0 -541 -219q-84 -109 -125 -252q123 96 287 97q207 0 332 -132t125 -370v-21q0 -244 -137 -377q-136 -133 -386 -133
t-391 157t-141 423v27q0 432 230 738t747 306z" />
    <glyph glyph-name="seven" unicode="7" horiz-adv-x="1228" 
d="M88 1024v573h1061v-167l-582 -1430h-288l565 1362l-205 -4h-311v-334h-240z" />
    <glyph glyph-name="eight" unicode="8" horiz-adv-x="1228" 
d="M625 1384h-21q-104 0 -170 -59t-65 -158v-16q0 -105 62 -161t171 -56h25q109 0 171 55t62 162v16q0 98 -65 158q-66 59 -170 59zM596 696q-110 0 -174 -58t-64 -167v-25q0 -117 71 -175t175 -58h21q104 0 175 58t70 175v25q0 109 -64 167q-65 58 -173 58h-37zM614 -27
q-252 0 -390 133t-138 314v37q0 250 213 358q-203 106 -203 348v37q0 174 130 299t388 125t388 -125t131 -299v-37q0 -240 -203 -348q213 -111 213 -358v-37q0 -180 -138 -314q-139 -133 -391 -133z" />
    <glyph glyph-name="nine" unicode="9" horiz-adv-x="1228" 
d="M606 829q82 0 152 41t108 113q2 20 2 61v21q0 151 -72 235t-180 84h-12q-110 0 -180 -70t-70 -190v-39q0 -127 66 -191t176 -65h10zM162 -27v244q365 0 540 219q80 100 123 252q-121 -96 -284 -96q-207 0 -332 132t-125 370v20q0 244 137 377t386 133t390 -157t142 -423
v-26q1 -432 -229 -738t-748 -307z" />
    <glyph glyph-name="colon" unicode=":" horiz-adv-x="512" 
d="M401 289v-289h-290v289h290zM401 944v-291h-290v291h290z" />
    <glyph glyph-name="semicolon" unicode=";" horiz-adv-x="512" 
d="M401 944v-291h-290v291h290zM401 289v-228q0 -338 -313 -337v139q145 0 170 137h-147v289h290z" />
    <glyph glyph-name="less" unicode="&#x3c;" horiz-adv-x="1228" 
d="M90 930l1049 440v-266l-762 -305l762 -305v-267l-1049 441v262z" />
    <glyph glyph-name="equal" unicode="=" horiz-adv-x="1228" 
d="M90 461v241h1049v-241h-1049zM90 895v242h1049v-242h-1049z" />
    <glyph glyph-name="greater" unicode="&#x3e;" horiz-adv-x="1228" 
d="M1139 930v-262l-1049 -441v267l762 305l-762 305v266z" />
    <glyph glyph-name="question" unicode="?" horiz-adv-x="991" 
d="M635 289v-289h-291v289h291zM499 1386q-99 0 -142 -80q-42 -81 -42 -255h-268v30q1 267 105 405t346 138t346 -116t104 -312t-122 -325q-52 -54 -104 -106q-126 -126 -140 -323h-185q-14 201 87 372q42 69 85 128q107 147 107 244q0 98 -39 149t-138 51z" />
    <glyph glyph-name="at" unicode="@" horiz-adv-x="2009" 
d="M971 901q-103 0 -155 -71t-52 -195v-62q0 -125 51 -195t156 -71q131 0 205 119v356q-74 119 -205 119zM1044 -254h13q377 0 674 219l104 -141q-330 -260 -779 -260t-723 262q-273 262 -274 727v82q-1 465 271 727t710 262q384 0 638 -192q128 -96 201 -256t73 -367v-61
q0 -361 -161 -498q-148 -127 -396 -127h-176l-23 129q-98 -156 -290 -156t-292 132q-98 132 -98 345v62q0 213 98 345t292 132t290 -158l23 131h208l-16 -286v-498q190 8 270 101t80 346v61q1 279 -147 433q-188 196 -567 200h-13q-356 0 -573 -210t-217 -597v-82
q0 -391 218 -599t582 -208z" />
    <glyph glyph-name="A" unicode="A" horiz-adv-x="1292" 
d="M647 1292l-168 -688h334zM457 1606h379l419 -1606h-294l-89 365h-450l-88 -365h-297z" />
    <glyph glyph-name="B" unicode="B" horiz-adv-x="1263" 
d="M614 1358h-215v-420h215q225 0 226 197v26q-1 197 -226 197zM645 698h-246v-458h246q100 0 168 51t68 166v22q0 115 -68 167t-168 52zM125 1597h489q504 0 504 -430v-41q0 -213 -178 -303q219 -94 219 -334v-40q0 -449 -524 -449h-510v1597z" />
    <glyph glyph-name="C" unicode="C" horiz-adv-x="1310" 
d="M371 758q-1 -281 67 -413t234 -132h18q258 0 258 326h277v-21q0 -281 -136 -413t-426 -132q-289 1 -431 187t-142 598v82q0 412 141 598t431 186t427 -134q136 -134 136 -423v-70h-277q0 199 -58 293t-200 94h-18q-166 0 -234 -132t-67 -412v-82z" />
    <glyph glyph-name="D" unicode="D" horiz-adv-x="1341" 
d="M399 240h181q211 0 301 122t90 396v82q0 274 -90 396t-301 122h-181v-1118zM1251 758q-1 -408 -157 -583t-498 -175h-471v1597h471q342 0 499 -175t156 -582v-82z" />
    <glyph glyph-name="E" unicode="E" horiz-adv-x="1157" 
d="M125 1597h950v-239h-676v-424h574v-238h-574v-456h676v-240h-950v1597z" />
    <glyph glyph-name="F" unicode="F" horiz-adv-x="1101" 
d="M125 1597h936v-239h-662v-424h559v-238h-559v-696h-274v1597z" />
    <glyph glyph-name="G" unicode="G" horiz-adv-x="1359" 
d="M714 -27q-322 1 -473 187t-151 598v82q0 410 148 597t438 187q291 0 430 -135t139 -422v-70h-274q-1 199 -61 293t-205 94h-19q-172 0 -244 -132t-71 -412v-82q-1 -283 73 -414t256 -131h19q154 0 252 80v309h-232v238h506v-680q-209 -187 -531 -187z" />
    <glyph glyph-name="H" unicode="H" horiz-adv-x="1341" 
d="M942 1597h275v-1597h-275v696h-543v-696h-274v1597h274v-663h543v663z" />
    <glyph glyph-name="I" unicode="I" horiz-adv-x="544" 
d="M410 1597v-1597h-275v1597h275z" />
    <glyph glyph-name="J" unicode="J" horiz-adv-x="1073" 
d="M684 1597h274v-1108q0 -516 -454 -516q-244 0 -348 130t-105 389v47h260q0 -170 42 -248q41 -78 143 -78t145 76t43 235v1073z" />
    <glyph glyph-name="K" unicode="K" horiz-adv-x="1241" 
d="M399 1597v-706l459 706h332l-455 -649l455 -948h-305l-324 700l-162 -229v-471h-274v1597h274z" />
    <glyph glyph-name="L" unicode="L" horiz-adv-x="1046" 
d="M1016 0h-891v1597h274v-1357h617v-240z" />
    <glyph glyph-name="M" unicode="M" horiz-adv-x="1738" 
d="M399 0h-274v1597h403l340 -1122l342 1122h404v-1597h-275v791l9 329l-342 -1120h-275l-340 1120l8 -329v-791z" />
    <glyph glyph-name="N" unicode="N" horiz-adv-x="1382" 
d="M1257 1597v-1597h-290l-590 1102l8 -338v-764h-260v1597h291l590 -1101l-9 338v763h260z" />
    <glyph glyph-name="O" unicode="O" horiz-adv-x="1361" 
d="M672 213h18q164 0 233 133t68 412v82q-1 280 -69 412t-232 132h-18q-164 0 -233 -133t-68 -411v-82q1 -279 69 -412t232 -133zM682 -27q-304 1 -448 187t-144 598v82q0 412 144 598t448 186t446 -187q143 -187 144 -597v-82q0 -410 -144 -598t-446 -187z" />
    <glyph glyph-name="P" unicode="P" horiz-adv-x="1224" 
d="M399 836h236q246 0 246 249v23q0 250 -246 250h-236v-522zM399 596v-596h-274v1597h500q535 0 534 -479v-41q0 -481 -534 -481h-226z" />
    <glyph glyph-name="Q" unicode="Q" horiz-adv-x="1361" 
d="M991 758v82q-1 280 -69 412t-232 132h-18q-164 0 -233 -133t-68 -411v-82q1 -279 69 -412t232 -133h6l-115 301h211l94 -240q123 115 123 484zM682 -27q-304 1 -448 187t-144 598v82q0 412 144 598t448 186t446 -187q143 -187 144 -597v-82q0 -586 -307 -731l92 -232
h-219l-70 182q-57 -4 -86 -4z" />
    <glyph glyph-name="R" unicode="R" horiz-adv-x="1251" 
d="M399 836h236q246 0 246 249v23q0 250 -246 250h-236v-522zM399 596v-596h-274v1597h500q535 0 534 -479v-41q0 -336 -260 -438l260 -639h-297l-229 596h-234z" />
    <glyph glyph-name="S" unicode="S" horiz-adv-x="1271" 
d="M90 1141v20q0 213 144 338t414 125t402 -133t132 -406v-47h-275q0 180 -63 264t-205 82h-18q-113 0 -182 -57t-68 -151v-13q-1 -104 65 -159t246 -80q266 -38 390 -142t124 -311v-22q0 -225 -146 -351t-413 -125q-561 0 -561 545v21h274q0 -326 277 -326h18q127 0 199 61
t71 164v13q0 106 -71 163q-72 57 -250 82q-262 36 -383 142t-121 303z" />
    <glyph glyph-name="T" unicode="T" horiz-adv-x="1114" 
d="M694 1358v-1358h-274v1358h-381v239h1036v-239h-381z" />
    <glyph glyph-name="U" unicode="U" horiz-adv-x="1341" 
d="M1227 502q0 -274 -129 -402t-427 -127q-298 0 -427 127t-129 402v1095h274v-1085q0 -160 65 -230q66 -70 218 -69q152 0 216 70t64 229v1085h275v-1095z" />
    <glyph glyph-name="V" unicode="V" horiz-adv-x="1292" 
d="M836 -8h-379l-420 1605h295l315 -1292l314 1292h294z" />
    <glyph glyph-name="W" unicode="W" horiz-adv-x="1892" 
d="M1208 -8l-262 1294l-264 -1294h-354l-275 1605h287l182 -1237l250 1237h346l252 -1237l182 1237h287l-274 -1605h-357z" />
    <glyph glyph-name="X" unicode="X" horiz-adv-x="1306" 
d="M45 0l412 829l-412 768h320l288 -575l287 575h320l-412 -766l412 -831h-306l-303 639l-299 -639h-307z" />
    <glyph glyph-name="Y" unicode="Y" horiz-adv-x="1249" 
d="M762 0h-275v487l-462 1110h299l301 -772l301 772h299l-463 -1110v-487z" />
    <glyph glyph-name="Z" unicode="Z" horiz-adv-x="1202" 
d="M102 1358v239h998v-188l-682 -1176l280 7h422v-240h-1038v188l682 1176l-281 -6h-381z" />
    <glyph glyph-name="bracketleft" unicode="[" horiz-adv-x="716" 
d="M125 1720h520v-235h-254v-1495h254v-236h-520v1966z" />
    <glyph glyph-name="backslash" unicode="\" horiz-adv-x="790" 
d="M502 -246l-471 1966h262l471 -1966h-262z" />
    <glyph glyph-name="bracketright" unicode="]" horiz-adv-x="716" 
d="M594 -246h-520v236h252v1495h-252v235h520v-1966z" />
    <glyph glyph-name="asciicircum" unicode="^" horiz-adv-x="1228" 
d="M745 1597l441 -1050h-266l-306 764l-305 -764h-266l440 1050h262z" />
    <glyph glyph-name="underscore" unicode="_" horiz-adv-x="655" 
d="M90 -346v233h475v-233h-475z" />
    <glyph glyph-name="grave" unicode="`" horiz-adv-x="1024" 
d="M168 1597h291l186 -366h-266z" />
    <glyph glyph-name="a" unicode="a" horiz-adv-x="1101" 
d="M489 193q152 0 236 112v230l-227 -37q-162 -27 -162 -156v-16q0 -55 38 -94t115 -39zM397 -27q-163 0 -245 90t-82 230v20q0 164 99 239t280 101l276 43v4q0 106 -40 156t-140 49q-180 0 -180 -178h-254v18q0 159 101 263t341 104t339 -104t99 -308v-393l17 -307h-236
l-20 125q-131 -152 -355 -152z" />
    <glyph glyph-name="b" unicode="b" horiz-adv-x="1153" 
d="M596 207q215 0 215 303v65q0 305 -215 306q-133 0 -213 -125v-426q78 -123 213 -123zM383 1638v-653q106 127 289 127q406 0 405 -537v-65q0 -248 -97 -392t-307 -144t-315 161l-22 -135h-236l17 307v1331h266z" />
    <glyph glyph-name="c" unicode="c" horiz-adv-x="1075" 
d="M340 510q0 -303 219 -303q96 0 144 52t49 136h252v-43q0 -166 -116 -272t-346 -106t-348 146q-120 146 -120 390v65q0 245 120 391t350 146t345 -111t115 -284v-45h-252q0 98 -48 153t-145 56q-219 0 -219 -306v-65z" />
    <glyph glyph-name="d" unicode="d" horiz-adv-x="1165" 
d="M567 881q-215 0 -215 -306v-65q0 -303 215 -303q139 0 213 123v426q-76 125 -213 125zM494 1112q180 0 286 -127v653h267v-1331l16 -307h-236l-22 135q-104 -162 -313 -162q-210 1 -308 145t-98 392v65q0 250 97 394q98 143 311 143z" />
    <glyph glyph-name="e" unicode="e" horiz-adv-x="1132" 
d="M566 905q-210 0 -226 -264h448q-12 264 -222 264zM1057 444h-717q14 -264 244 -264q102 0 161 50t60 118h252v-8q0 -154 -126 -260q-125 -106 -363 -106t-366 149q-128 150 -128 393v53q0 244 127 394q127 149 369 149t364 -150q123 -150 123 -393v-125z" />
    <glyph glyph-name="f" unicode="f" horiz-adv-x="821" 
d="M479 1255v-170h260v-233h-260v-852h-266v852h-166v233h166v201q0 379 379 379q115 0 168 -27v-221q-33 17 -114 17t-124 -38t-43 -141z" />
    <glyph glyph-name="g" unicode="g" horiz-adv-x="1153" 
d="M555 881q-103 0 -159 -75t-56 -202v-53q0 -276 215 -277q133 0 215 123v359q-80 125 -215 125zM770 16v152q-104 -125 -301 -125t-296 135t-99 373v53q0 228 100 368t309 140t312 -160l22 133h236l-17 -307v-766q0 -449 -477 -448q-245 0 -355 108t-110 289v39h252
q0 -106 47 -162t161 -55q114 0 165 55t51 178z" />
    <glyph glyph-name="h" unicode="h" horiz-adv-x="1153" 
d="M385 1638v-663q117 137 328 137q168 0 251 -104t83 -265v-743h-265v700q0 82 -43 131t-129 50q-150 0 -225 -125v-756h-266v1638h266z" />
    <glyph glyph-name="i" unicode="i" horiz-adv-x="512" 
d="M401 1563v-289h-290v289h290zM123 0v1085h266v-1085h-266z" />
    <glyph glyph-name="j" unicode="j" horiz-adv-x="516" 
d="M401 1563v-289h-290v289h290zM123 -27v1112h266v-1142q0 -379 -379 -379q-115 0 -168 26v222q39 -16 117 -16t121 37q43 38 43 140z" />
    <glyph glyph-name="k" unicode="k" horiz-adv-x="1112" 
d="M111 0v1638h266v-991l371 438h321l-364 -411l364 -674h-309l-238 467l-145 -166v-301h-266z" />
    <glyph glyph-name="l" unicode="l" horiz-adv-x="512" 
d="M123 0v1638h266v-1638h-266z" />
    <glyph glyph-name="m" unicode="m" horiz-adv-x="1728" 
d="M1624 0h-266v719q0 162 -154 162q-123 0 -200 -117v-764h-265v719q0 162 -155 162q-125 0 -199 -117v-764h-266v778l-19 307h236l22 -135q115 162 326 162t285 -172q111 172 338 172q157 0 237 -96t80 -256v-760z" />
    <glyph glyph-name="n" unicode="n" horiz-adv-x="1153" 
d="M1047 0h-265v700q0 82 -43 131t-129 50q-150 0 -225 -125v-756h-266v778l-19 307h236l24 -143q117 170 353 170q168 0 251 -104t83 -265v-743z" />
    <glyph glyph-name="o" unicode="o" horiz-adv-x="1132" 
d="M565 207q225 0 226 303v65q0 305 -226 306q-225 0 -225 -306v-65q0 -303 225 -303zM565 -27q-247 1 -369 147t-122 390v65q0 245 123 391t369 146t368 -145q123 -145 123 -392v-65q0 -244 -123 -390t-369 -147z" />
    <glyph glyph-name="p" unicode="p" horiz-adv-x="1153" 
d="M596 207q215 0 215 303v65q0 305 -215 306q-133 0 -213 -125v-426q78 -123 213 -123zM1077 510q0 -248 -97 -392q-98 -144 -296 -145q-198 0 -301 127v-510h-266v1188l-17 307h236l22 -135q104 162 314 162q406 0 405 -537v-65z" />
    <glyph glyph-name="q" unicode="q" horiz-adv-x="1163" 
d="M559 881q-215 0 -215 -306v-65q0 -303 215 -303q137 0 215 123v426q-80 125 -215 125zM774 -410v512q-104 -129 -302 -129q-198 1 -296 145t-98 392v65q0 249 97 393t309 144t315 -164l22 137h236l-17 -307v-1188h-266z" />
    <glyph glyph-name="r" unicode="r" horiz-adv-x="753" 
d="M682 852h-45q-176 0 -252 -115v-737h-266v778l-19 307h236l22 -131q109 158 293 158l31 -2v-258z" />
    <glyph glyph-name="s" unicode="s" horiz-adv-x="1077" 
d="M539 180q92 0 139 37t47 103t-45 95q-45 30 -162 40q-225 18 -321 87t-97 212v16q0 168 120 255t319 87q440 0 440 -371v-10h-260q0 174 -180 174q-84 0 -130 -35q-47 -35 -47 -96t42 -91t157 -38q221 -18 325 -84t105 -221v-14q1 -164 -115 -258t-338 -94t-337 100
t-115 258v8h264q1 -160 189 -160z" />
    <glyph glyph-name="t" unicode="t" horiz-adv-x="862" 
d="M479 1085h301v-233h-301v-469q0 -102 43 -139t126 -37t112 14v-221q-53 -27 -168 -27q-379 0 -379 381v498h-166v233h166v308h266v-308z" />
    <glyph glyph-name="u" unicode="u" horiz-adv-x="1153" 
d="M106 1085h265v-700q0 -178 174 -178q147 0 225 123v755h266v-778l17 -307h-236l-24 143q-117 -170 -353 -170q-168 1 -251 105t-83 266v741z" />
    <glyph glyph-name="v" unicode="v" horiz-adv-x="1101" 
d="M367 0l-338 1085h278l244 -864l244 864h276l-336 -1085h-368z" />
    <glyph glyph-name="w" unicode="w" horiz-adv-x="1536" 
d="M768 805l-182 -805h-338l-201 1085h260l117 -798l184 798h320l184 -798l117 798h262l-203 -1085h-338z" />
    <glyph glyph-name="x" unicode="x" horiz-adv-x="1095" 
d="M39 1085h309l201 -391l199 391h309l-295 -530l295 -555h-303l-207 418l-205 -418h-303l295 555z" />
    <glyph glyph-name="y" unicode="y" horiz-adv-x="1085" 
d="M549 332l239 753h287l-383 -1032l-143 -463h-316l173 463l-383 1032h288z" />
    <glyph glyph-name="z" unicode="z" horiz-adv-x="1001" 
d="M78 852v233h846v-182l-518 -676l231 6h307v-233h-887v182l518 676l-231 -6h-266z" />
    <glyph glyph-name="braceleft" unicode="{" horiz-adv-x="716" 
d="M645 1720v-235q-86 0 -127 -43t-41 -144v-331q0 -164 -121 -230q121 -68 121 -229v-332q0 -100 41 -143t127 -43v-236h-51q-385 0 -385 340v369q-2 86 -41 121t-119 34v238q84 0 122 38t38 132v354q0 340 385 340h51z" />
    <glyph glyph-name="bar" unicode="|" horiz-adv-x="497" 
d="M117 -246v1966h262v-1966h-262z" />
    <glyph glyph-name="braceright" unicode="}" horiz-adv-x="716" 
d="M74 -246v236q84 0 125 43t41 143v332q0 162 118 229q-119 63 -118 230v331q0 100 -41 144t-125 43v235h49q385 0 385 -340v-368q2 -86 40 -121t120 -35v-238q-80 0 -119 -34t-41 -121v-369q0 -340 -385 -340h-49z" />
    <glyph glyph-name="asciitilde" unicode="~" horiz-adv-x="1228" 
d="M373 969q113 0 258 -70t217 -70q100 0 188 105l129 -131q-121 -182 -309 -182q-113 -1 -258 69t-217 70q-100 0 -188 -105l-130 131q122 183 310 183z" />
    <glyph glyph-name="nbspace" unicode="&#xa0;" horiz-adv-x="409" 
 />
    <glyph glyph-name="exclamdown" unicode="&#xa1;" horiz-adv-x="512" 
d="M111 797v288h290v-288h-290zM422 -410h-332l74 1053h184z" />
    <glyph glyph-name="cent" unicode="&#xa2;" horiz-adv-x="1228" 
d="M369 764q0 -203 51 -299l190 790q-127 -8 -184 -113t-57 -308v-70zM1135 963h-267q0 164 -63 233l-205 -854h43q225 0 225 254h267v-33q0 -221 -126 -339t-376 -118q-31 0 -88 5l-56 -234h-208l69 293q-256 139 -256 594v70q0 662 539 661h33l55 225h209l-64 -262
q268 -98 269 -440v-55z" />
    <glyph glyph-name="sterling" unicode="&#xa3;" horiz-adv-x="1228" 
d="M664 1386q-188 0 -189 -219q0 -109 47 -288h375v-236h-311q57 -231 67 -405h480v-238h-1037v238h322q-18 162 -101 405h-221v236h150q-41 159 -41 329t110 293q111 123 356 123t355 -143t109 -424v-33h-269q1 362 -202 362z" />
    <glyph glyph-name="yen" unicode="&#xa5;" horiz-adv-x="1228" 
d="M86 748v235h203l-269 614h302l292 -753l293 753h301l-268 -614h203v-235h-305l-76 -175h381v-235h-391v-338h-275v338h-391v235h381l-76 175h-305z" />
    <glyph glyph-name="brokenbar" unicode="&#xa6;" horiz-adv-x="497" 
d="M117 -246v928h262v-928h-262zM117 793v927h262v-927h-262z" />
    <glyph glyph-name="section" unicode="&#xa7;" horiz-adv-x="1101" 
d="M762 802q0 74 -50 110t-165 42h-4q-101 0 -153 -42t-52 -116t50 -111q50 -36 167 -42h4q100 0 152 42q51 42 51 117zM1030 803q0 -182 -153 -260q86 -78 86 -211v-17q0 -168 -120 -255t-319 -87q-440 0 -440 373v8h260q0 -174 180 -174q84 0 130 35t46 97t-43 98
q-43 35 -155 43q-219 18 -326 90q-106 72 -106 235v17q0 180 153 258q-86 78 -86 213v16q0 168 120 255t321 87q440 0 440 -373v-8h-262q0 174 -178 174q-84 0 -130 -35q-46 -36 -47 -98q0 -62 43 -96t156 -43q218 -18 324 -90t106 -236v-16z" />
    <glyph glyph-name="dieresis" unicode="&#xa8;" horiz-adv-x="1024" 
d="M862 1563v-289h-291v289h291zM453 1563v-289h-291v289h291z" />
    <glyph glyph-name="copyright" unicode="&#xa9;" horiz-adv-x="1884" 
d="M748 768q0 -120 48 -192t145 -72t140 45t43 110h230v-36q0 -139 -104 -235t-317 -97q-212 0 -321 134t-108 343v61q0 209 108 343q109 134 321 134t316 -98q104 -100 105 -250v-38h-230q0 78 -43 126t-140 48t-145 -73t-48 -192v-61zM223 799q0 -299 210 -509t509 -210
t509 210t210 509t-210 509t-509 210t-509 -210t-210 -509zM117 799q1 341 243 583t582 242t583 -243t243 -583t-244 -582q-242 -243 -582 -243t-583 243q-242 243 -242 583z" />
    <glyph glyph-name="ordfeminine" unicode="&#xaa;" horiz-adv-x="851" 
d="M297 1049q0 -86 93 -86t155 65v154l-146 -23q-102 -18 -102 -100v-10zM788 391h-702v203h702v-203zM330 774q-144 0 -205 68t-62 174v14q0 123 75 180t216 80l191 29q-2 67 -27 97t-88 30q-115 0 -115 -111h-221v15q0 118 80 196t265 78t262 -78t77 -231v-293l15 -229
h-209l-17 90q-93 -109 -237 -109z" />
    <glyph glyph-name="guillemotleft" unicode="&#xab;" horiz-adv-x="1126" 
d="M1024 1128v-239l-250 -193l250 -192v-240l-434 305v254zM539 1128v-239l-250 -193l250 -192v-240l-437 305v254z" />
    <glyph glyph-name="logicalnot" unicode="&#xac;" horiz-adv-x="1228" 
d="M90 926v241h1049v-757h-240v516h-809z" />
    <glyph glyph-name="uni00AD" unicode="&#xad;" horiz-adv-x="706" 
d="M82 600v234h543v-234h-543z" />
    <glyph glyph-name="registered" unicode="&#xae;" horiz-adv-x="675" 
d="M387 1421q0 41 -45 41h-53v-86h53q45 0 45 41v4zM487 1413q0 -74 -59 -102l59 -125h-104l-47 114h-47v-114h-101v352h177q123 0 122 -113v-12zM84 1362q0 -104 75 -179t179 -75t179 75t75 179t-75 179t-179 75t-179 -75t-75 -179zM35 1362q0 125 89 214t214 89t214 -89
t89 -214t-89 -214t-214 -89t-214 89t-89 214z" />
    <glyph glyph-name="macron" unicode="&#xaf;" horiz-adv-x="1024" 
d="M227 1296v236h570v-236h-570z" />
    <glyph glyph-name="degree" unicode="&#xb0;" horiz-adv-x="819" 
d="M735 1298v-8q0 -147 -91 -235t-234 -88t-235 88q-91 88 -91 235v8q0 146 91 236t235 90t234 -90q91 -90 91 -236zM567 1288v12q0 70 -44 111t-109 41h-8q-66 0 -110 -41t-44 -111v-12q0 -70 44 -110t110 -41h8q66 1 110 41t43 110z" />
    <glyph glyph-name="plusminus" unicode="&#xb1;" horiz-adv-x="1228" 
d="M90 295v240h1049v-240h-1049zM494 1362h241v-240h404v-241h-404v-240h-241v240h-404v241h404v240z" />
    <glyph glyph-name="twosuperior" unicode="&#xb2;" 
d="M575 975v-176h-536v129l291 325q41 45 41 84v11q0 86 -60 86h-10q-57 0 -57 -103h-205v19q0 262 268 262q141 0 205 -69t63 -157v-22q0 -68 -20 -111t-68 -96l-165 -182h253z" />
    <glyph glyph-name="threesuperior" unicode="&#xb3;" 
d="M238 1055q0 -94 63 -94h10q29 0 47 20t19 59v11q0 66 -66 65h-106v180h104q61 0 62 66v12q1 27 -17 43t-43 17h-10q-57 0 -57 -103h-205v19q0 262 268 262q141 0 205 -68t63 -147v-21q0 -111 -83 -170q88 -59 88 -170v-20q0 -84 -66 -159t-204 -75t-208 66t-69 190v17
h205z" />
    <glyph glyph-name="acute" unicode="&#xb4;" horiz-adv-x="1024" 
d="M565 1597h291l-211 -366h-266z" />
    <glyph glyph-name="paragraph" unicode="&#xb6;" horiz-adv-x="1101" 
d="M334 1085q0 -195 149 -237v495q-150 -43 -149 -235v-23zM483 0v600q-428 43 -428 477v41q0 479 535 479h393v-1597h-274v1358h-95v-1358h-131z" />
    <glyph glyph-name="periodcentered" unicode="&#xb7;" horiz-adv-x="512" 
d="M401 862v-291h-290v291h290z" />
    <glyph glyph-name="cedilla" unicode="&#xb8;" horiz-adv-x="1232" 
d="M500 -301q98 0 98 51t-109 51l-69 -8l-35 53l59 154h136l-35 -92q88 -4 146 -47t59 -125q0 -174 -234 -174q-137 0 -209 49l41 121q54 -33 152 -33z" />
    <glyph glyph-name="onesuperior" unicode="&#xb9;" 
d="M588 799h-527v176h162v373l-98 -66l-102 145l249 168h156v-620h160v-176z" />
    <glyph glyph-name="ordmasculine" unicode="&#xba;" horiz-adv-x="890" 
d="M303 1171q0 -197 143 -196q141 0 142 196v56q0 195 -142 194q-143 0 -143 -194v-56zM88 391v203h717v-203h-717zM821 1171q0 -181 -94 -289q-93 -108 -281 -108t-282 108t-94 289v56q0 182 94 290q94 107 281 107t282 -107q94 -108 94 -290v-56z" />
    <glyph glyph-name="guillemotright" unicode="&#xbb;" horiz-adv-x="1126" 
d="M590 889v239l434 -305v-254l-434 -305v240l248 192zM102 889v239l437 -305v-254l-437 -305v240l250 192z" />
    <glyph glyph-name="onequarter" unicode="&#xbc;" horiz-adv-x="1638" 
d="M1341 336v102l2 37l-88 -143l37 4h49zM588 799h-527v176h162v373l-98 -66l-102 145l249 168h156v-620h160v-176zM1546 0h-205v156h-292v145l305 498h192v-463h66v-180h-66v-156zM336 0h-213l1180 1597h213z" />
    <glyph glyph-name="onehalf" unicode="&#xbd;" horiz-adv-x="1638" 
d="M588 799h-527v176h162v373l-98 -66l-102 145l249 168h156v-620h160v-176zM1599 176v-176h-536v129l291 326q41 45 41 84v10q0 86 -60 86h-10q-57 0 -57 -103h-205v19q0 262 268 262q141 0 205 -69t63 -156v-23q0 -69 -20 -111t-68 -96l-165 -182h253zM336 0h-213
l1180 1597h213z" />
    <glyph glyph-name="threequarters" unicode="&#xbe;" horiz-adv-x="1638" 
d="M1341 336v102l2 37l-88 -143l37 4h49zM1546 0h-205v156h-292v145l305 498h192v-463h66v-180h-66v-156zM238 1055q0 -94 63 -94h10q29 0 47 20t19 59v11q0 66 -66 65h-106v180h104q61 0 62 66v12q1 27 -17 43t-43 17h-10q-57 0 -57 -103h-205v19q0 262 268 262
q141 0 205 -68t63 -147v-21q0 -111 -83 -170q88 -59 88 -170v-20q0 -84 -66 -159t-204 -75t-208 66t-69 190v17h205zM336 0h-213l1180 1597h213z" />
    <glyph glyph-name="questiondown" unicode="&#xbf;" horiz-adv-x="991" 
d="M356 797v288h291v-288h-291zM487 -199q104 0 146 77q41 77 41 245h270v-33q0 -258 -104 -392t-344 -134t-346 108t-107 273q0 202 123 325q51 50 104 98q129 116 140 275h184q8 -111 -34 -215t-96 -170q-149 -182 -149 -291q0 -166 172 -166z" />
    <glyph glyph-name="Agrave" unicode="&#xc0;" horiz-adv-x="1292" 
d="M385 1946h281l114 -226h-266zM647 1292l-168 -688h334zM457 1606h379l419 -1606h-294l-89 365h-450l-88 -365h-297z" />
    <glyph glyph-name="Aacute" unicode="&#xc1;" horiz-adv-x="1292" 
d="M629 1946h280l-129 -226h-266zM647 1292l-168 -688h334zM457 1606h379l419 -1606h-294l-89 365h-450l-88 -365h-297z" />
    <glyph glyph-name="Acircumflex" unicode="&#xc2;" horiz-adv-x="1292" 
d="M516 1720h-246l244 226h266l244 -226h-246l-131 103zM647 1292l-168 -688h334zM457 1606h379l419 -1606h-294l-89 365h-450l-88 -365h-297z" />
    <glyph glyph-name="Atilde" unicode="&#xc3;" horiz-adv-x="1292" 
d="M647 1292l-168 -688h334zM854 1931h150q0 -117 -54 -171t-133 -54q-80 0 -176 51t-129 51q-72 0 -72 -73h-149q0 117 53 171t133 54t176 -51t129 -51q72 -1 72 73zM457 1606h379l419 -1606h-294l-89 365h-450l-88 -365h-297z" />
    <glyph glyph-name="Adieresis" unicode="&#xc4;" horiz-adv-x="1292" 
d="M940 1927v-188h-240v188h240zM594 1927v-188h-240v188h240zM647 1292l-168 -688h334zM457 1606h379l419 -1606h-294l-89 365h-450l-88 -365h-297z" />
    <glyph glyph-name="Aring" unicode="&#xc5;" horiz-adv-x="1292" 
d="M647 1870q-45 0 -75 -32t-31 -76q1 -44 31 -76t75 -31q45 0 76 32q31 31 31 75t-31 76t-76 32zM647 1292l-168 -688h334zM438 1758q0 90 62 152t147 62t147 -61t62 -153t-74 -152h54l419 -1606h-294l-89 365h-450l-88 -365h-297l420 1606h53q-72 61 -72 152z" />
    <glyph glyph-name="AE" unicode="&#xc6;" horiz-adv-x="1781" 
d="M748 1286l-226 -676h305zM1700 1597v-239h-696l59 -424h534v-238h-501l63 -456h541v-240h-799l-45 373h-414l-125 -373h-294l569 1597h1108z" />
    <glyph glyph-name="Ccedilla" unicode="&#xc7;" horiz-adv-x="1310" 
d="M678 -301q98 0 98 51t-108 51l-70 -8l-35 53l49 129q-268 15 -395 203t-127 580v82q0 412 141 598t431 186t427 -134q136 -134 136 -423v-70h-277q0 199 -58 293t-200 94h-18q-166 0 -234 -132t-67 -412v-82q-1 -281 67 -413t234 -132h18q258 0 258 326h277v-21
q0 -260 -119 -392t-358 -149l-25 -69q88 -4 146 -47t59 -125q0 -174 -234 -174q-137 0 -209 49l41 121q54 -33 152 -33z" />
    <glyph glyph-name="Egrave" unicode="&#xc8;" horiz-adv-x="1157" 
d="M346 1946h281l114 -226h-266zM125 1597h950v-239h-676v-424h574v-238h-574v-456h676v-240h-950v1597z" />
    <glyph glyph-name="Eacute" unicode="&#xc9;" horiz-adv-x="1157" 
d="M590 1946h280l-129 -226h-266zM125 1597h950v-239h-676v-424h574v-238h-574v-456h676v-240h-950v1597z" />
    <glyph glyph-name="Ecircumflex" unicode="&#xca;" horiz-adv-x="1157" 
d="M477 1720h-246l244 226h266l244 -226h-246l-131 103zM125 1597h950v-239h-676v-424h574v-238h-574v-456h676v-240h-950v1597z" />
    <glyph glyph-name="Edieresis" unicode="&#xcb;" horiz-adv-x="1157" 
d="M901 1927v-188h-239v188h239zM555 1927v-188h-240v188h240zM125 1597h950v-239h-676v-424h574v-238h-574v-456h676v-240h-950v1597z" />
    <glyph glyph-name="Igrave" unicode="&#xcc;" horiz-adv-x="544" 
d="M10 1946h281l115 -226h-267zM410 1597v-1597h-275v1597h275z" />
    <glyph glyph-name="Iacute" unicode="&#xcd;" horiz-adv-x="544" 
d="M254 1946h281l-129 -226h-267zM410 1597v-1597h-275v1597h275z" />
    <glyph glyph-name="Icircumflex" unicode="&#xce;" horiz-adv-x="544" 
d="M141 1720h-245l243 226h267l243 -226h-246l-131 103zM410 1597v-1597h-275v1597h275z" />
    <glyph glyph-name="Idieresis" unicode="&#xcf;" horiz-adv-x="544" 
d="M219 1927v-188h-239v188h239zM565 1927v-188h-239v188h239zM410 1597v-1597h-275v1597h275z" />
    <glyph glyph-name="Eth" unicode="&#xd0;" horiz-adv-x="1464" 
d="M522 1358v-436h369v-209h-369v-473h180q211 0 302 121q90 122 90 397v82q0 274 -90 396t-302 122h-180zM29 713v209h219v675h471q342 0 499 -175t156 -582v-82q0 -408 -156 -583t-499 -175h-471v713h-219z" />
    <glyph glyph-name="Ntilde" unicode="&#xd1;" horiz-adv-x="1382" 
d="M899 1931h150q1 -117 -53 -171t-134 -54t-176 51t-129 51q-72 0 -72 -73h-149q0 117 53 171t133 54t176 -51t129 -51q72 -1 72 73zM1257 1597v-1597h-290l-590 1102l8 -338v-764h-260v1597h291l590 -1101l-9 338v763h260z" />
    <glyph glyph-name="Ograve" unicode="&#xd2;" horiz-adv-x="1361" 
d="M420 1946h280l115 -226h-266zM672 213h18q164 0 233 133t68 412v82q-1 280 -69 412t-232 132h-18q-164 0 -233 -133t-68 -411v-82q1 -279 69 -412t232 -133zM682 -27q-304 1 -448 187t-144 598v82q0 412 144 598t448 186t446 -187q143 -187 144 -597v-82
q0 -410 -144 -598t-446 -187z" />
    <glyph glyph-name="Oacute" unicode="&#xd3;" horiz-adv-x="1361" 
d="M664 1946h280l-129 -226h-266zM672 213h18q164 0 233 133t68 412v82q-1 280 -69 412t-232 132h-18q-164 0 -233 -133t-68 -411v-82q1 -279 69 -412t232 -133zM682 -27q-304 1 -448 187t-144 598v82q0 412 144 598t448 186t446 -187q143 -187 144 -597v-82
q0 -410 -144 -598t-446 -187z" />
    <glyph glyph-name="Ocircumflex" unicode="&#xd4;" horiz-adv-x="1361" 
d="M551 1720h-246l244 226h266l244 -226h-246l-131 103zM672 213h18q164 0 233 133t68 412v82q-1 280 -69 412t-232 132h-18q-164 0 -233 -133t-68 -411v-82q1 -279 69 -412t232 -133zM682 -27q-304 1 -448 187t-144 598v82q0 412 144 598t448 186t446 -187
q143 -187 144 -597v-82q0 -410 -144 -598t-446 -187z" />
    <glyph glyph-name="Otilde" unicode="&#xd5;" horiz-adv-x="1361" 
d="M889 1931h149q0 -117 -53 -171t-133 -54t-176 51t-129 51q-72 0 -72 -73h-149q0 117 53 171t133 54t176 -51t129 -51q72 -1 72 73zM672 213h18q164 0 233 133t68 412v82q-1 280 -69 412t-232 132h-18q-164 0 -233 -133t-68 -411v-82q1 -279 69 -412t232 -133zM682 -27
q-304 1 -448 187t-144 598v82q0 412 144 598t448 186t446 -187q143 -187 144 -597v-82q0 -410 -144 -598t-446 -187z" />
    <glyph glyph-name="Odieresis" unicode="&#xd6;" horiz-adv-x="1361" 
d="M975 1927v-188h-240v188h240zM629 1927v-188h-240v188h240zM672 213h18q164 0 233 133t68 412v82q-1 280 -69 412t-232 132h-18q-164 0 -233 -133t-68 -411v-82q1 -279 69 -412t232 -133zM682 -27q-304 1 -448 187t-144 598v82q0 412 144 598t448 186t446 -187
q143 -187 144 -597v-82q0 -410 -144 -598t-446 -187z" />
    <glyph glyph-name="multiply" unicode="&#xd7;" horiz-adv-x="1228" 
d="M236 248l-173 172l379 379l-379 379l173 172l378 -379l379 379l172 -172l-379 -379l379 -379l-172 -172l-379 379z" />
    <glyph glyph-name="Oslash" unicode="&#xd8;" horiz-adv-x="1351" 
d="M371 758q0 -164 20 -273l506 803q-72 96 -207 96h-18q-164 0 -233 -133t-68 -411v-82zM991 840q0 166 -24 282l-508 -809q70 -100 213 -100h18q164 0 233 133t68 412v82zM90 840q0 412 144 598t448 186q227 0 362 -102l48 75h174l-119 -188q125 -188 125 -569v-82
q0 -410 -144 -597t-446 -188q-236 0 -371 107l-49 -80h-174l121 195q-119 188 -119 563v82z" />
    <glyph glyph-name="Ugrave" unicode="&#xd9;" horiz-adv-x="1341" 
d="M410 1946h280l115 -226h-266zM1227 502q0 -274 -129 -402t-427 -127q-298 0 -427 127t-129 402v1095h274v-1085q0 -160 65 -230q66 -70 218 -69q152 0 216 70t64 229v1085h275v-1095z" />
    <glyph glyph-name="Uacute" unicode="&#xda;" horiz-adv-x="1341" 
d="M653 1946h281l-129 -226h-266zM1227 502q0 -274 -129 -402t-427 -127q-298 0 -427 127t-129 402v1095h274v-1085q0 -160 65 -230q66 -70 218 -69q152 0 216 70t64 229v1085h275v-1095z" />
    <glyph glyph-name="Ucircumflex" unicode="&#xdb;" horiz-adv-x="1341" 
d="M541 1720h-246l244 226h266l244 -226h-246l-131 103zM1227 502q0 -274 -129 -402t-427 -127q-298 0 -427 127t-129 402v1095h274v-1085q0 -160 65 -230q66 -70 218 -69q152 0 216 70t64 229v1085h275v-1095z" />
    <glyph glyph-name="Udieresis" unicode="&#xdc;" horiz-adv-x="1341" 
d="M965 1927v-188h-240v188h240zM618 1927v-188h-239v188h239zM1227 502q0 -274 -129 -402t-427 -127q-298 0 -427 127t-129 402v1095h274v-1085q0 -160 65 -230q66 -70 218 -69q152 0 216 70t64 229v1085h275v-1095z" />
    <glyph glyph-name="Yacute" unicode="&#xdd;" horiz-adv-x="1249" 
d="M606 1946h281l-129 -226h-266zM762 0h-275v487l-462 1110h299l301 -772l301 772h299l-463 -1110v-487z" />
    <glyph glyph-name="Thorn" unicode="&#xde;" horiz-adv-x="1224" 
d="M399 539h236q246 0 246 249v21q0 250 -246 250h-236v-520zM399 1597v-299h226q535 0 534 -479v-41q0 -479 -534 -479h-226v-299h-274v1597h274z" />
    <glyph glyph-name="germandbls" unicode="&#xdf;" horiz-adv-x="1255" 
d="M807 1198q0 233 -215 234q-109 0 -162 -62t-53 -160v-1210h-266v1225q1 201 117 321t359 119q243 0 365 -124t121 -314v-19q0 -129 -55 -222t-170 -173l65 -43q150 -98 223 -200t72 -222v-14q0 -156 -92 -258t-296 -102t-278 92t-73 260v14h233q0 -160 113 -160
q78 0 103 40t24 112q0 129 -194 254l-179 123v168q238 131 238 321z" />
    <glyph glyph-name="agrave" unicode="&#xe0;" horiz-adv-x="1101" 
d="M207 1597h291l186 -366h-266zM489 193q152 0 236 112v230l-227 -37q-162 -27 -162 -156v-16q0 -55 38 -94t115 -39zM397 -27q-163 0 -245 90t-82 230v20q0 164 99 239t280 101l276 43v4q0 106 -40 156t-140 49q-180 0 -180 -178h-254v18q0 159 101 263t341 104t339 -104
t99 -308v-393l17 -307h-236l-20 125q-131 -152 -355 -152z" />
    <glyph glyph-name="aacute" unicode="&#xe1;" horiz-adv-x="1101" 
d="M604 1597h291l-211 -366h-266zM489 193q152 0 236 112v230l-227 -37q-162 -27 -162 -156v-16q0 -55 38 -94t115 -39zM397 -27q-163 0 -245 90t-82 230v20q0 164 99 239t280 101l276 43v4q0 106 -40 156t-140 49q-180 0 -180 -178h-254v18q0 159 101 263t341 104t339 -104
t99 -308v-393l17 -307h-236l-20 125q-131 -152 -355 -152z" />
    <glyph glyph-name="acircumflex" unicode="&#xe2;" horiz-adv-x="1101" 
d="M489 193q152 0 236 112v230l-227 -37q-162 -27 -162 -156v-16q0 -55 38 -94t115 -39zM391 1231h-239l272 366h254l272 -366h-239l-160 188zM397 -27q-163 0 -245 90t-82 230v20q0 164 99 239t280 101l276 43v4q0 106 -40 156t-140 49q-180 0 -180 -178h-254v18
q0 159 101 263t341 104t339 -104t99 -308v-393l17 -307h-236l-20 125q-131 -152 -355 -152z" />
    <glyph glyph-name="atilde" unicode="&#xe3;" horiz-adv-x="1101" 
d="M489 193q152 0 236 112v230l-227 -37q-162 -27 -162 -156v-16q0 -55 38 -94t115 -39zM752 1565h182q0 -147 -57 -219t-139 -72t-184 54q-101 54 -136 54q-68 0 -68 -79h-182q0 147 57 219t139 72t184 -55q101 -54 136 -54q68 0 68 80zM397 -27q-163 0 -245 90t-82 230v20
q0 164 99 239t280 101l276 43v4q0 106 -40 156t-140 49q-180 0 -180 -178h-254v18q0 159 101 263t341 104t339 -104t99 -308v-393l17 -307h-236l-20 125q-131 -152 -355 -152z" />
    <glyph glyph-name="adieresis" unicode="&#xe4;" horiz-adv-x="1101" 
d="M901 1563v-289h-291v289h291zM492 1563v-289h-291v289h291zM489 193q152 0 236 112v230l-227 -37q-162 -27 -162 -156v-16q0 -55 38 -94t115 -39zM397 -27q-163 0 -245 90t-82 230v20q0 164 99 239t280 101l276 43v4q0 106 -40 156t-140 49q-180 0 -180 -178h-254v18
q0 159 101 263t341 104t339 -104t99 -308v-393l17 -307h-236l-20 125q-131 -152 -355 -152z" />
    <glyph glyph-name="aring" unicode="&#xe5;" horiz-adv-x="1101" 
d="M444 1414q0 -44 31 -76t76 -32t76 32t31 76t-31 76t-76 32t-76 -32t-31 -76zM489 193q152 0 236 112v230l-227 -37q-162 -27 -162 -156v-16q0 -55 38 -94t115 -39zM342 1414q0 86 61 148t147 62t148 -61t62 -149t-62 -147q-62 -61 -147 -61t-147 60t-62 148zM397 -27
q-163 0 -245 90t-82 230v20q0 164 99 239t280 101l276 43v4q0 106 -40 156t-140 49q-180 0 -180 -178h-254v18q0 159 101 263t341 104t339 -104t99 -308v-393l17 -307h-236l-20 125q-131 -152 -355 -152z" />
    <glyph glyph-name="ae" unicode="&#xe6;" horiz-adv-x="1767" 
d="M1218 905q-210 0 -227 -264h449q-12 264 -222 264zM725 516v12l-225 -36q-164 -31 -164 -156v-17q0 -55 39 -94t123 -39t148 42q62 42 91 89l11 9q-23 90 -23 190zM1708 444h-717q14 -264 244 -264q102 0 162 50q59 50 59 118h252v-8q0 -154 -126 -260t-349 -107
q-264 0 -395 168q-172 -168 -422 -168q-172 0 -259 90t-87 230v20q0 164 101 239t282 101l272 43v4q0 106 -40 156t-140 49q-180 0 -180 -178h-254v18q0 159 101 263t345 104t332 -141q119 141 347 141t350 -150t122 -393v-125z" />
    <glyph glyph-name="ccedilla" unicode="&#xe7;" horiz-adv-x="1075" 
d="M548 -301q98 0 97 51q0 51 -108 51l-70 -8l-35 53l49 131q-205 23 -306 165t-101 368v65q0 245 120 391t350 146t345 -111t115 -284v-45h-252q0 98 -48 153t-145 56q-219 0 -219 -306v-65q0 -303 219 -303q96 0 144 52t49 136h252v-43q0 -152 -98 -255t-290 -120l-24 -69
q88 -4 146 -47t59 -125q0 -174 -234 -174q-137 0 -209 49l41 121q55 -33 153 -33z" />
    <glyph glyph-name="egrave" unicode="&#xe8;" horiz-adv-x="1132" 
d="M566 905q-210 0 -226 -264h448q-12 264 -222 264zM227 1597h291l187 -366h-267zM1057 444h-717q14 -264 244 -264q102 0 161 50t60 118h252v-8q0 -154 -126 -260q-125 -106 -363 -106t-366 149q-128 150 -128 393v53q0 244 127 394q127 149 369 149t364 -150
q123 -150 123 -393v-125z" />
    <glyph glyph-name="eacute" unicode="&#xe9;" horiz-adv-x="1132" 
d="M566 905q-210 0 -226 -264h448q-12 264 -222 264zM625 1597h290l-210 -366h-267zM1057 444h-717q14 -264 244 -264q102 0 161 50t60 118h252v-8q0 -154 -126 -260q-125 -106 -363 -106t-366 149q-128 150 -128 393v53q0 244 127 394q127 149 369 149t364 -150
q123 -150 123 -393v-125z" />
    <glyph glyph-name="ecircumflex" unicode="&#xea;" horiz-adv-x="1132" 
d="M566 905q-210 0 -226 -264h448q-12 264 -222 264zM412 1231h-240l272 366h254l273 -366h-240l-160 188zM1057 444h-717q14 -264 244 -264q102 0 161 50t60 118h252v-8q0 -154 -126 -260q-125 -106 -363 -106t-366 149q-128 150 -128 393v53q0 244 127 394
q127 149 369 149t364 -150q123 -150 123 -393v-125z" />
    <glyph glyph-name="edieresis" unicode="&#xeb;" horiz-adv-x="1132" 
d="M512 1563v-289h-291v289h291zM922 1563v-289h-291v289h291zM566 905q-210 0 -226 -264h448q-12 264 -222 264zM1057 444h-717q14 -264 244 -264q102 0 161 50t60 118h252v-8q0 -154 -126 -260q-125 -106 -363 -106t-366 149q-128 150 -128 393v53q0 244 127 394
q127 149 369 149t364 -150q123 -150 123 -393v-125z" />
    <glyph glyph-name="igrave" unicode="&#xec;" horiz-adv-x="512" 
d="M-88 1597h291l186 -366h-266zM123 0v1085h266v-1085h-266z" />
    <glyph glyph-name="iacute" unicode="&#xed;" horiz-adv-x="512" 
d="M309 1597h291l-211 -366h-266zM123 0v1085h266v-1085h-266z" />
    <glyph glyph-name="icircumflex" unicode="&#xee;" horiz-adv-x="512" 
d="M96 1231h-239l272 366h254l272 -366h-239l-160 188zM123 0v1085h266v-1085h-266z" />
    <glyph glyph-name="idieresis" unicode="&#xef;" horiz-adv-x="512" 
d="M606 1563v-289h-291v289h291zM197 1563v-289h-291v289h291zM123 0v1085h266v-1085h-266z" />
    <glyph glyph-name="eth" unicode="&#xf0;" horiz-adv-x="1132" 
d="M565 207q225 0 226 303v65q0 305 -226 306q-225 0 -225 -306v-65q0 -303 225 -303zM1057 575v-65q0 -244 -123 -390t-369 -146q-247 0 -369 146t-122 390v65q0 242 116 390q117 147 338 147q98 0 181 -35q-72 137 -211 221l-359 -200v162l199 112q-108 37 -264 53v240
q336 -25 540 -137l246 137v-162l-117 -65q314 -268 314 -863z" />
    <glyph glyph-name="ntilde" unicode="&#xf1;" horiz-adv-x="1153" 
d="M784 1565h183q1 -147 -57 -219t-140 -72t-183 54t-136 54q-68 0 -68 -79h-182q0 147 57 219q58 72 140 72t183 -55q101 -54 136 -54q67 0 67 80zM1047 0h-265v700q0 82 -43 131t-129 50q-150 0 -225 -125v-756h-266v778l-19 307h236l24 -143q117 170 353 170
q168 0 251 -104t83 -265v-743z" />
    <glyph glyph-name="ograve" unicode="&#xf2;" horiz-adv-x="1132" 
d="M221 1597h291l186 -366h-266zM565 207q225 0 226 303v65q0 305 -226 306q-225 0 -225 -306v-65q0 -303 225 -303zM565 -27q-247 1 -369 147t-122 390v65q0 245 123 391t369 146t368 -145q123 -145 123 -392v-65q0 -244 -123 -390t-369 -147z" />
    <glyph glyph-name="oacute" unicode="&#xf3;" horiz-adv-x="1132" 
d="M618 1597h291l-211 -366h-266zM565 207q225 0 226 303v65q0 305 -226 306q-225 0 -225 -306v-65q0 -303 225 -303zM565 -27q-247 1 -369 147t-122 390v65q0 245 123 391t369 146t368 -145q123 -145 123 -392v-65q0 -244 -123 -390t-369 -147z" />
    <glyph glyph-name="ocircumflex" unicode="&#xf4;" horiz-adv-x="1132" 
d="M406 1231h-240l272 366h254l273 -366h-240l-160 188zM565 207q225 0 226 303v65q0 305 -226 306q-225 0 -225 -306v-65q0 -303 225 -303zM565 -27q-247 1 -369 147t-122 390v65q0 245 123 391t369 146t368 -145q123 -145 123 -392v-65q0 -244 -123 -390t-369 -147z" />
    <glyph glyph-name="otilde" unicode="&#xf5;" horiz-adv-x="1132" 
d="M766 1565h182q0 -147 -57 -219t-139 -72t-184 54q-101 54 -136 54q-68 0 -67 -79h-183q0 147 58 219t139 72q82 0 183 -55q101 -54 136 -54q68 0 68 80zM565 207q225 0 226 303v65q0 305 -226 306q-225 0 -225 -306v-65q0 -303 225 -303zM565 -27q-247 1 -369 147
t-122 390v65q0 245 123 391t369 146t368 -145q123 -145 123 -392v-65q0 -244 -123 -390t-369 -147z" />
    <glyph glyph-name="odieresis" unicode="&#xf6;" horiz-adv-x="1132" 
d="M915 1563v-289h-290v289h290zM506 1563v-289h-291v289h291zM565 207q225 0 226 303v65q0 305 -226 306q-225 0 -225 -306v-65q0 -303 225 -303zM565 -27q-247 1 -369 147t-122 390v65q0 245 123 391t369 146t368 -145q123 -145 123 -392v-65q0 -244 -123 -390t-369 -147z
" />
    <glyph glyph-name="divide" unicode="&#xf7;" horiz-adv-x="1228" 
d="M760 1374v-289h-291v289h291zM760 512v-289h-291v289h291zM90 678v242h1049v-242h-1049z" />
    <glyph glyph-name="oslash" unicode="&#xf8;" horiz-adv-x="1132" 
d="M791 575q0 80 -19 142l-352 -459q55 -51 145 -51q225 0 226 303v65zM340 510q0 -76 16 -141l355 458q-57 53 -146 54q-225 0 -225 -306v-65zM1057 510q0 -244 -123 -390t-369 -147q-186 0 -301 84l-43 -57h-147l106 139q-106 139 -106 371v65q0 245 123 391t368 146
q180 0 299 -84l45 57h148l-107 -139q106 -139 107 -371v-65z" />
    <glyph glyph-name="ugrave" unicode="&#xf9;" horiz-adv-x="1153" 
d="M225 1597h291l186 -366h-266zM106 1085h265v-700q0 -178 174 -178q147 0 225 123v755h266v-778l17 -307h-236l-24 143q-117 -170 -353 -170q-168 1 -251 105t-83 266v741z" />
    <glyph glyph-name="uacute" unicode="&#xfa;" horiz-adv-x="1153" 
d="M623 1597h290l-211 -366h-266zM106 1085h265v-700q0 -178 174 -178q147 0 225 123v755h266v-778l17 -307h-236l-24 143q-117 -170 -353 -170q-168 1 -251 105t-83 266v741z" />
    <glyph glyph-name="ucircumflex" unicode="&#xfb;" horiz-adv-x="1153" 
d="M410 1231h-240l272 366h254l273 -366h-240l-160 188zM106 1085h265v-700q0 -178 174 -178q147 0 225 123v755h266v-778l17 -307h-236l-24 143q-117 -170 -353 -170q-168 1 -251 105t-83 266v741z" />
    <glyph glyph-name="udieresis" unicode="&#xfc;" horiz-adv-x="1153" 
d="M510 1563v-289h-291v289h291zM920 1563v-289h-291v289h291zM106 1085h265v-700q0 -178 174 -178q147 0 225 123v755h266v-778l17 -307h-236l-24 143q-117 -170 -353 -170q-168 1 -251 105t-83 266v741z" />
    <glyph glyph-name="yacute" unicode="&#xfd;" horiz-adv-x="1085" 
d="M602 1597h291l-211 -366h-266zM549 332l239 753h287l-383 -1032l-143 -463h-316l173 463l-383 1032h288z" />
    <glyph glyph-name="thorn" unicode="&#xfe;" horiz-adv-x="1153" 
d="M596 207q215 0 215 303v65q0 305 -215 306q-133 0 -213 -125v-426q78 -123 213 -123zM115 1638h266v-657q104 131 291 131q406 0 405 -537v-65q0 -248 -97 -392q-98 -144 -296 -144t-303 128v-512h-266v2048z" />
    <glyph glyph-name="ydieresis" unicode="&#xff;" horiz-adv-x="1085" 
d="M489 1563v-289h-290v289h290zM899 1563v-289h-291v289h291zM549 332l239 753h287l-383 -1032l-143 -463h-316l173 463l-383 1032h288z" />
    <glyph glyph-name="Amacron" unicode="&#x100;" horiz-adv-x="1292" 
d="M365 1747v172h565v-172h-565zM647 1292l-168 -688h334zM457 1606h379l419 -1606h-294l-89 365h-450l-88 -365h-297z" />
    <glyph glyph-name="amacron" unicode="&#x101;" horiz-adv-x="1101" 
d="M489 193q152 0 236 112v230l-227 -37q-162 -27 -162 -156v-16q0 -55 38 -94t115 -39zM266 1296v236h570v-236h-570zM397 -27q-163 0 -245 90t-82 230v20q0 164 99 239t280 101l276 43v4q0 106 -40 156t-140 49q-180 0 -180 -178h-254v18q0 159 101 263t341 104t339 -104
t99 -308v-393l17 -307h-236l-20 125q-131 -152 -355 -152z" />
    <glyph glyph-name="Abreve" unicode="&#x102;" horiz-adv-x="1292" 
d="M647 1292l-168 -688h334zM647 1692q-350 0 -350 254h188q0 -100 162 -100t162 100h188q0 -254 -350 -254zM457 1606h379l419 -1606h-294l-89 365h-450l-88 -365h-297z" />
    <glyph glyph-name="abreve" unicode="&#x103;" horiz-adv-x="1101" 
d="M489 193q152 0 236 112v230l-227 -37q-162 -27 -162 -156v-16q0 -55 38 -94t115 -39zM551 1206q-193 0 -282 104t-85 287h197q0 -186 170 -186t170 186h197q4 -183 -85 -287t-282 -104zM397 -27q-163 0 -245 90t-82 230v20q0 164 99 239t280 101l276 43v4q0 106 -40 156
t-140 49q-180 0 -180 -178h-254v18q0 159 101 263t341 104t339 -104t99 -308v-393l17 -307h-236l-20 125q-131 -152 -355 -152z" />
    <glyph glyph-name="Aogonek" unicode="&#x104;" horiz-adv-x="1292" 
d="M647 1292l-168 -688h334zM1116 -162q0 -36 26 -60t76 -24t93 25l63 -168q-80 -49 -202 -49t-192 54t-69 158q0 104 60 185l-99 406h-450l-88 -365h-297l420 1606h379l419 -1606q-139 -62 -139 -162z" />
    <glyph glyph-name="aogonek" unicode="&#x105;" horiz-adv-x="1101" 
d="M868 -162q0 -36 26 -60t77 -24t92 25l63 -168q-80 -49 -202 -49t-191 54q-70 54 -69 161q0 137 106 233l-18 115q-131 -152 -355 -152q-163 0 -245 90t-82 230v20q0 164 99 239t280 101l276 43v4q0 106 -40 156t-140 49q-180 0 -180 -178h-254v18q0 159 101 263t341 104
t339 -104t99 -308v-393l17 -307q-140 -62 -140 -162zM489 193q152 0 236 112v230l-227 -37q-162 -27 -162 -156v-16q0 -55 38 -94t115 -39z" />
    <glyph glyph-name="Cacute" unicode="&#x106;" horiz-adv-x="1310" 
d="M655 1946h281l-129 -226h-266zM371 758q-1 -281 67 -413t234 -132h18q258 0 258 326h277v-21q0 -281 -136 -413t-426 -132q-289 1 -431 187t-142 598v82q0 412 141 598t431 186t427 -134q136 -134 136 -423v-70h-277q0 199 -58 293t-200 94h-18q-166 0 -234 -132
t-67 -412v-82z" />
    <glyph glyph-name="cacute" unicode="&#x107;" horiz-adv-x="1075" 
d="M606 1597h291l-211 -366h-266zM340 510q0 -303 219 -303q96 0 144 52t49 136h252v-43q0 -166 -116 -272t-346 -106t-348 146q-120 146 -120 390v65q0 245 120 391t350 146t345 -111t115 -284v-45h-252q0 98 -48 153t-145 56q-219 0 -219 -306v-65z" />
    <glyph glyph-name="Ccircumflex" unicode="&#x108;" horiz-adv-x="1310" 
d="M543 1720h-246l244 226h266l244 -226h-246l-131 103zM371 758q-1 -281 67 -413t234 -132h18q258 0 258 326h277v-21q0 -281 -136 -413t-426 -132q-289 1 -431 187t-142 598v82q0 412 141 598t431 186t427 -134q136 -134 136 -423v-70h-277q0 199 -58 293t-200 94h-18
q-166 0 -234 -132t-67 -412v-82z" />
    <glyph glyph-name="ccircumflex" unicode="&#x109;" horiz-adv-x="1075" 
d="M393 1231h-239l272 366h254l272 -366h-239l-160 188zM340 510q0 -303 219 -303q96 0 144 52t49 136h252v-43q0 -166 -116 -272t-346 -106t-348 146q-120 146 -120 390v65q0 245 120 391t350 146t345 -111t115 -284v-45h-252q0 98 -48 153t-145 56q-219 0 -219 -306v-65z
" />
    <glyph glyph-name="Cdotaccent" unicode="&#x10a;" horiz-adv-x="1310" 
d="M793 1927v-188h-238v188h238zM371 758q-1 -281 67 -413t234 -132h18q258 0 258 326h277v-21q0 -281 -136 -413t-426 -132q-289 1 -431 187t-142 598v82q0 412 141 598t431 186t427 -134q136 -134 136 -423v-70h-277q0 199 -58 293t-200 94h-18q-166 0 -234 -132t-67 -412
v-82z" />
    <glyph glyph-name="cdotaccent" unicode="&#x10b;" horiz-adv-x="1075" 
d="M698 1563v-289h-290v289h290zM340 510q0 -303 219 -303q96 0 144 52t49 136h252v-43q0 -166 -116 -272t-346 -106t-348 146q-120 146 -120 390v65q0 245 120 391t350 146t345 -111t115 -284v-45h-252q0 98 -48 153t-145 56q-219 0 -219 -306v-65z" />
    <glyph glyph-name="Ccaron" unicode="&#x10c;" horiz-adv-x="1310" 
d="M297 1946h246l131 -105l131 105h246l-244 -226h-266zM371 758q-1 -281 67 -413t234 -132h18q258 0 258 326h277v-21q0 -281 -136 -413t-426 -132q-289 1 -431 187t-142 598v82q0 412 141 598t431 186t427 -134q136 -134 136 -423v-70h-277q0 199 -58 293t-200 94h-18
q-166 0 -234 -132t-67 -412v-82z" />
    <glyph glyph-name="ccaron" unicode="&#x10d;" horiz-adv-x="1075" 
d="M154 1597h239l160 -188l160 188h239l-272 -366h-254zM340 510q0 -303 219 -303q96 0 144 52t49 136h252v-43q0 -166 -116 -272t-346 -106t-348 146q-120 146 -120 390v65q0 245 120 391t350 146t345 -111t115 -284v-45h-252q0 98 -48 153t-145 56q-219 0 -219 -306v-65z
" />
    <glyph glyph-name="Dcaron" unicode="&#x10e;" horiz-adv-x="1341" 
d="M252 1946h246l131 -105l131 105h246l-244 -226h-266zM399 240h181q211 0 301 122t90 396v82q0 274 -90 396t-301 122h-181v-1118zM1251 758q-1 -408 -157 -583t-498 -175h-471v1597h471q342 0 499 -175t156 -582v-82z" />
    <glyph glyph-name="dcaron" unicode="&#x10f;" horiz-adv-x="1165" 
d="M1171 1638h175l-48 -407h-127v407zM567 881q-215 0 -215 -306v-65q0 -303 215 -303q139 0 213 123v426q-76 125 -213 125zM494 1112q180 0 286 -127v653h267v-1331l16 -307h-236l-22 135q-104 -162 -313 -162q-210 1 -308 145t-98 392v65q0 250 97 394q98 143 311 143z
" />
    <glyph glyph-name="Dcroat" unicode="&#x110;" horiz-adv-x="1464" 
d="M522 1358v-436h369v-209h-369v-473h180q211 0 302 121q90 122 90 397v82q0 274 -90 396t-302 122h-180zM29 713v209h219v675h471q342 0 499 -175t156 -582v-82q0 -408 -156 -583t-499 -175h-471v713h-219z" />
    <glyph glyph-name="dcroat" unicode="&#x111;" horiz-adv-x="1165" 
d="M567 881q-215 0 -215 -306v-65q0 -303 215 -303q139 0 213 123v426q-76 125 -213 125zM1200 1460v-196h-153v-957l16 -307h-236l-22 135q-104 -162 -313 -162q-210 1 -308 145t-98 392v65q0 249 97 393t311 144q180 0 286 -127v279h-243v196h243v178h267v-178h153z" />
    <glyph glyph-name="Emacron" unicode="&#x112;" horiz-adv-x="1157" 
d="M326 1747v172h565v-172h-565zM125 1597h950v-239h-676v-424h574v-238h-574v-456h676v-240h-950v1597z" />
    <glyph glyph-name="emacron" unicode="&#x113;" horiz-adv-x="1132" 
d="M566 905q-210 0 -226 -264h448q-12 264 -222 264zM287 1296v236h569v-236h-569zM1057 444h-717q14 -264 244 -264q102 0 161 50t60 118h252v-8q0 -154 -126 -260q-125 -106 -363 -106t-366 149q-128 150 -128 393v53q0 244 127 394q127 149 369 149t364 -150
q123 -150 123 -393v-125z" />
    <glyph glyph-name="Ebreve" unicode="&#x114;" horiz-adv-x="1157" 
d="M125 1597h950v-239h-676v-424h574v-238h-574v-456h676v-240h-950v1597zM608 1692q-350 0 -350 254h188q0 -100 162 -100t162 100h188q0 -254 -350 -254z" />
    <glyph glyph-name="ebreve" unicode="&#x115;" horiz-adv-x="1132" 
d="M566 905q-210 0 -226 -264h448q-12 264 -222 264zM571 1206q-193 0 -281 104t-85 287h196q0 -186 170 -186t170 186h197q4 -183 -85 -287t-282 -104zM1057 444h-717q14 -264 244 -264q102 0 161 50t60 118h252v-8q0 -154 -126 -260q-125 -106 -363 -106t-366 149
q-128 150 -128 393v53q0 244 127 394q127 149 369 149t364 -150q123 -150 123 -393v-125z" />
    <glyph glyph-name="Edotaccent" unicode="&#x116;" horiz-adv-x="1157" 
d="M727 1927v-188h-238v188h238zM125 1597h950v-239h-676v-424h574v-238h-574v-456h676v-240h-950v1597z" />
    <glyph glyph-name="edotaccent" unicode="&#x117;" horiz-adv-x="1132" 
d="M717 1563v-289h-291v289h291zM566 905q-210 0 -226 -264h448q-12 264 -222 264zM1057 444h-717q14 -264 244 -264q102 0 161 50t60 118h252v-8q0 -154 -126 -260q-125 -106 -363 -106t-366 149q-128 150 -128 393v53q0 244 127 394q127 149 369 149t364 -150
q123 -150 123 -393v-125z" />
    <glyph glyph-name="Eogonek" unicode="&#x118;" horiz-adv-x="1157" 
d="M992 -438q-261 0 -261 224q0 116 94 214h-700v1597h950v-239h-676v-424h574v-238h-574v-456h676v-240q-139 -61 -139 -162q0 -36 26 -60t76 -24t92 25l64 -168q-80 -49 -202 -49z" />
    <glyph glyph-name="eogonek" unicode="&#x119;" horiz-adv-x="1132" 
d="M566 905q-210 0 -226 -264h448q-12 264 -222 264zM1057 444h-717q14 -264 244 -264q102 0 161 50t60 118h252v-8q0 -117 -74 -208t-207 -132q-66 -20 -104 -63t-37 -89q0 -94 96 -94q57 0 98 25l64 -168q-80 -49 -202 -49q-121 0 -191 54t-70 164t74 197
q-215 23 -323 168t-107 371v53q0 244 127 394q127 149 369 149t364 -150q123 -150 123 -393v-125z" />
    <glyph glyph-name="Ecaron" unicode="&#x11a;" horiz-adv-x="1157" 
d="M231 1946h246l131 -105l131 105h246l-244 -226h-266zM125 1597h950v-239h-676v-424h574v-238h-574v-456h676v-240h-950v1597z" />
    <glyph glyph-name="ecaron" unicode="&#x11b;" horiz-adv-x="1132" 
d="M566 905q-210 0 -226 -264h448q-12 264 -222 264zM172 1597h240l159 -188l160 188h240l-273 -366h-254zM1057 444h-717q14 -264 244 -264q102 0 161 50t60 118h252v-8q0 -154 -126 -260q-125 -106 -363 -106t-366 149q-128 150 -128 393v53q0 244 127 394
q127 149 369 149t364 -150q123 -150 123 -393v-125z" />
    <glyph glyph-name="Gcircumflex" unicode="&#x11c;" horiz-adv-x="1359" 
d="M557 1720h-246l244 226h266l244 -226h-246l-131 103zM714 -27q-322 1 -473 187t-151 598v82q0 410 148 597t438 187q291 0 430 -135t139 -422v-70h-274q-1 199 -61 293t-205 94h-19q-172 0 -244 -132t-71 -412v-82q-1 -283 73 -414t256 -131h19q154 0 252 80v309h-232
v238h506v-680q-209 -187 -531 -187z" />
    <glyph glyph-name="gcircumflex" unicode="&#x11d;" horiz-adv-x="1153" 
d="M406 1231h-240l272 366h254l273 -366h-240l-160 188zM555 881q-103 0 -159 -75t-56 -202v-53q0 -276 215 -277q133 0 215 123v359q-80 125 -215 125zM770 16v152q-104 -125 -301 -125t-296 135t-99 373v53q0 228 100 368t309 140t312 -160l22 133h236l-17 -307v-766
q0 -449 -477 -448q-245 0 -355 108t-110 289v39h252q0 -106 47 -162t161 -55q114 0 165 55t51 178z" />
    <glyph glyph-name="Gbreve" unicode="&#x11e;" horiz-adv-x="1359" 
d="M688 1692q-350 0 -350 254h188q0 -100 162 -100t162 100h188q0 -254 -350 -254zM714 -27q-322 1 -473 187t-151 598v82q0 410 148 597t438 187q291 0 430 -135t139 -422v-70h-274q-1 199 -61 293t-205 94h-19q-172 0 -244 -132t-71 -412v-82q-1 -283 73 -414t256 -131h19
q154 0 252 80v309h-232v238h506v-680q-209 -187 -531 -187z" />
    <glyph glyph-name="gbreve" unicode="&#x11f;" horiz-adv-x="1153" 
d="M565 1206q-193 0 -281 104t-85 287h196q0 -186 170 -186t170 186h197q4 -183 -85 -287t-282 -104zM555 881q-103 0 -159 -75t-56 -202v-53q0 -276 215 -277q133 0 215 123v359q-80 125 -215 125zM770 16v152q-104 -125 -301 -125t-296 135t-99 373v53q0 228 100 368
t309 140t312 -160l22 133h236l-17 -307v-766q0 -449 -477 -448q-245 0 -355 108t-110 289v39h252q0 -106 47 -162t161 -55q114 0 165 55t51 178z" />
    <glyph glyph-name="Gdotaccent" unicode="&#x120;" horiz-adv-x="1359" 
d="M807 1927v-188h-238v188h238zM714 -27q-322 1 -473 187t-151 598v82q0 410 148 597t438 187q291 0 430 -135t139 -422v-70h-274q-1 199 -61 293t-205 94h-19q-172 0 -244 -132t-71 -412v-82q-1 -283 73 -414t256 -131h19q154 0 252 80v309h-232v238h506v-680
q-209 -187 -531 -187z" />
    <glyph glyph-name="gdotaccent" unicode="&#x121;" horiz-adv-x="1153" 
d="M705 1563v-289h-291v289h291zM555 881q-103 0 -159 -75t-56 -202v-53q0 -276 215 -277q133 0 215 123v359q-80 125 -215 125zM770 16v152q-104 -125 -301 -125t-296 135t-99 373v53q0 228 100 368t309 140t312 -160l22 133h236l-17 -307v-766q0 -449 -477 -448
q-245 0 -355 108t-110 289v39h252q0 -106 47 -162t161 -55q114 0 165 55t51 178z" />
    <glyph glyph-name="Gcommaaccent" unicode="&#x122;" horiz-adv-x="1359" 
d="M834 -96v-115q0 -127 -68 -186t-207 -60v101q135 0 166 84h-141v176h250zM714 -27q-322 1 -473 187t-151 598v82q0 410 148 597t438 187q291 0 430 -135t139 -422v-70h-274q-1 199 -61 293t-205 94h-19q-172 0 -244 -132t-71 -412v-82q-1 -283 73 -414t256 -131h19
q154 0 252 80v309h-232v238h506v-680q-209 -187 -531 -187z" />
    <glyph glyph-name="gcommaaccent" unicode="&#x123;" horiz-adv-x="1153" 
d="M432 1231v127q0 137 67 202t208 64v-100q-141 0 -168 -105h145v-188h-252zM555 881q-103 0 -159 -75t-56 -202v-53q0 -276 215 -277q133 0 215 123v359q-80 125 -215 125zM770 16v152q-104 -125 -301 -125t-296 135t-99 373v53q0 228 100 368t309 140t312 -160l22 133
h236l-17 -307v-766q0 -449 -477 -448q-245 0 -355 108t-110 289v39h252q0 -106 47 -162t161 -55q114 0 165 55t51 178z" />
    <glyph glyph-name="Hcircumflex" unicode="&#x124;" horiz-adv-x="1341" 
d="M541 1720h-246l244 226h266l244 -226h-246l-131 103zM942 1597h275v-1597h-275v696h-543v-696h-274v1597h274v-663h543v663z" />
    <glyph glyph-name="hcircumflex" unicode="&#x125;" horiz-adv-x="1153" 
d="M119 1720h-246l244 226h266l244 -226h-246l-131 103zM385 1638v-663q117 137 328 137q168 0 251 -104t83 -265v-743h-265v700q0 82 -43 131t-129 50q-150 0 -225 -125v-756h-266v1638h266z" />
    <glyph glyph-name="Hbar" unicode="&#x126;" horiz-adv-x="1341" 
d="M399 934h543v229h-543v-229zM942 1597h275v-1597h-275v696h-543v-696h-274v1597h274v-225h543v225z" />
    <glyph glyph-name="hbar" unicode="&#x127;" horiz-adv-x="1153" 
d="M385 1638v-178h244v-196h-244v-289q117 137 328 137q168 0 251 -104t83 -265v-743h-265v700q0 82 -43 131t-129 50q-150 0 -225 -125v-756h-266v1264h-156v196h156v178h266z" />
    <glyph glyph-name="Itilde" unicode="&#x128;" horiz-adv-x="544" 
d="M479 1931h150q1 -117 -53 -171t-134 -54t-176 51t-129 51q-72 0 -71 -73h-150q0 117 53 171t133 54t177 -51q96 -51 129 -51q71 -1 71 73zM410 1597v-1597h-275v1597h275z" />
    <glyph glyph-name="itilde" unicode="&#x129;" horiz-adv-x="512" 
d="M457 1565h182q0 -147 -57 -219q-58 -72 -140 -72t-183 54t-136 54q-68 0 -68 -79h-182q0 147 57 219q58 72 140 72t183 -55q101 -54 136 -54q68 0 68 80zM123 0v1085h266v-1085h-266z" />
    <glyph glyph-name="Imacron" unicode="&#x12a;" horiz-adv-x="544" 
d="M-10 1747v172h565v-172h-565zM410 1597v-1597h-275v1597h275z" />
    <glyph glyph-name="imacron" unicode="&#x12b;" horiz-adv-x="512" 
d="M-29 1296v236h570v-236h-570zM123 0v1085h266v-1085h-266z" />
    <glyph glyph-name="Ibreve" unicode="&#x12c;" horiz-adv-x="544" 
d="M272 1692q-350 0 -350 254h189q-1 -100 161 -100t162 100h189q-1 -254 -351 -254zM410 1597v-1597h-275v1597h275z" />
    <glyph glyph-name="ibreve" unicode="&#x12d;" horiz-adv-x="512" 
d="M256 1206q-193 0 -282 104t-85 287h197q0 -186 170 -186t170 186h197q4 -183 -85 -287t-282 -104zM123 0v1085h266v-1085h-266z" />
    <glyph glyph-name="Iogonek" unicode="&#x12e;" horiz-adv-x="544" 
d="M270 -162q0 -36 26 -60t77 -24t92 25l63 -168q-80 -49 -202 -49t-191 54t-69 163t69 194v1624h275v-1597q-140 -62 -140 -162z" />
    <glyph glyph-name="iogonek" unicode="&#x12f;" horiz-adv-x="512" 
d="M401 1563v-289h-290v289h290zM306 -438q-122 0 -192 54t-69 166q0 110 78 202v1101h266v-1085q-139 -61 -139 -162q0 -36 26 -60t76 -24q51 0 92 25l64 -168q-80 -49 -202 -49z" />
    <glyph glyph-name="Idotaccent" unicode="&#x130;" horiz-adv-x="544" 
d="M391 1927v-188h-237v188h237zM410 1597v-1597h-275v1597h275z" />
    <glyph glyph-name="dotlessi" unicode="&#x131;" horiz-adv-x="512" 
d="M123 0v1085h266v-1085h-266z" />
    <glyph glyph-name="IJ" unicode="&#x132;" horiz-adv-x="1173" 
d="M410 1597v-1597h-275v1597h275zM784 401v1196h275v-1226q0 -397 -371 -398q-131 0 -180 33v227q42 -20 118 -20t117 41t41 147z" />
    <glyph glyph-name="ij" unicode="&#x133;" horiz-adv-x="921" 
d="M811 1563v-289h-291v289h291zM401 1563v-289h-290v289h290zM123 0v1085h266v-1085h-266zM532 -27v1112h267v-1142q0 -379 -379 -379q-115 0 -168 26v222q38 -16 116 -16t121 37q43 38 43 140z" />
    <glyph glyph-name="Jcircumflex" unicode="&#x134;" horiz-adv-x="1073" 
d="M690 1720h-246l244 226h266l244 -226h-246l-131 103zM684 1597h274v-1108q0 -516 -454 -516q-244 0 -348 130t-105 389v47h260q0 -170 42 -248q41 -78 143 -78t145 76t43 235v1073z" />
    <glyph glyph-name="jcircumflex" unicode="&#x135;" horiz-adv-x="512" 
d="M96 1231h-239l272 366h254l272 -366h-239l-160 188zM123 -27v1112h266v-1140q0 -381 -379 -381q-115 0 -168 26v222q33 -14 114 -14t124 36q43 37 43 139z" />
    <glyph glyph-name="Kcommaaccent" unicode="&#x136;" horiz-adv-x="1241" 
d="M745 -96v-115q1 -127 -67 -186t-207 -60v101q135 0 166 84h-141v176h249zM399 1597v-706l459 706h332l-455 -649l455 -948h-305l-324 700l-162 -229v-471h-274v1597h274z" />
    <glyph glyph-name="kcommaaccent" unicode="&#x137;" horiz-adv-x="1112" 
d="M680 -96v-115q0 -127 -68 -186t-206 -60v101q135 0 165 84h-141v176h250zM111 0v1638h266v-991l371 438h321l-364 -411l364 -674h-309l-238 467l-145 -166v-301h-266z" />
    <glyph glyph-name="kgreenlandic" unicode="&#x138;" horiz-adv-x="1112" 
d="M111 0v1085h266v-438l371 438h321l-364 -411l364 -674h-309l-238 467l-145 -166v-301h-266z" />
    <glyph glyph-name="Lacute" unicode="&#x139;" horiz-adv-x="1046" 
d="M244 1946h280l-129 -226h-266zM1016 0h-891v1597h274v-1357h617v-240z" />
    <glyph glyph-name="lacute" unicode="&#x13a;" horiz-adv-x="512" 
d="M238 1946h280l-129 -226h-266zM123 0v1638h266v-1638h-266z" />
    <glyph glyph-name="Lcommaaccent" unicode="&#x13b;" horiz-adv-x="1046" 
d="M696 -96v-115q0 -127 -68 -186t-206 -60v101q135 0 166 84h-142v176h250zM1016 0h-891v1597h274v-1357h617v-240z" />
    <glyph glyph-name="lcommaaccent" unicode="&#x13c;" horiz-adv-x="512" 
d="M381 -96v-115q0 -127 -68 -186t-207 -60v101q135 0 166 84h-141v176h250zM123 0v1638h266v-1638h-266z" />
    <glyph glyph-name="Lcaron" unicode="&#x13d;" horiz-adv-x="1046" 
d="M653 1638h174l-47 -407h-127v407zM1016 0h-891v1597h274v-1357h617v-240z" />
    <glyph glyph-name="lcaron" unicode="&#x13e;" horiz-adv-x="512" 
d="M514 1638h174l-47 -407h-127v407zM123 0v1638h266v-1638h-266z" />
    <glyph glyph-name="Ldot" unicode="&#x13f;" horiz-adv-x="1046" 
d="M926 961v-291h-291v291h291zM1016 0h-891v1597h274v-1357h617v-240z" />
    <glyph glyph-name="ldot" unicode="&#x140;" horiz-adv-x="831" 
d="M817 862v-291h-291v291h291zM123 0v1638h266v-1638h-266z" />
    <glyph glyph-name="Lslash" unicode="&#x141;" horiz-adv-x="1169" 
d="M248 1597h274v-684l396 199v-233l-396 -199v-440h617v-240h-891v543l-219 -109v234l219 108v821z" />
    <glyph glyph-name="lslash" unicode="&#x142;" horiz-adv-x="749" 
d="M238 1638h266v-669l215 143v-231l-215 -144v-737h-266v559l-185 -123v232l185 123v847z" />
    <glyph glyph-name="Nacute" unicode="&#x143;" horiz-adv-x="1382" 
d="M674 1946h280l-129 -226h-266zM1257 1597v-1597h-290l-590 1102l8 -338v-764h-260v1597h291l590 -1101l-9 338v763h260z" />
    <glyph glyph-name="nacute" unicode="&#x144;" horiz-adv-x="1153" 
d="M637 1597h291l-211 -366h-266zM1047 0h-265v700q0 82 -43 131t-129 50q-150 0 -225 -125v-756h-266v778l-19 307h236l24 -143q117 170 353 170q168 0 251 -104t83 -265v-743z" />
    <glyph glyph-name="Ncommaaccent" unicode="&#x145;" horiz-adv-x="1382" 
d="M817 -96v-115q1 -127 -67 -186t-207 -60v101q135 0 166 84h-142v176h250zM1257 1597v-1597h-290l-590 1102l8 -338v-764h-260v1597h291l590 -1101l-9 338v763h260z" />
    <glyph glyph-name="ncommaaccent" unicode="&#x146;" horiz-adv-x="1153" 
d="M709 -96v-115q0 -127 -68 -186t-207 -60v101q135 0 166 84h-141v176h250zM1047 0h-265v700q0 82 -43 131t-129 50q-150 0 -225 -125v-756h-266v778l-19 307h236l24 -143q117 170 353 170q168 0 251 -104t83 -265v-743z" />
    <glyph glyph-name="Ncaron" unicode="&#x147;" horiz-adv-x="1382" 
d="M315 1946h246l131 -105l131 105h246l-244 -226h-266zM1257 1597v-1597h-290l-590 1102l8 -338v-764h-260v1597h291l590 -1101l-9 338v763h260z" />
    <glyph glyph-name="ncaron" unicode="&#x148;" horiz-adv-x="1153" 
d="M184 1597h240l160 -188l159 188h240l-272 -366h-254zM1047 0h-265v700q0 82 -43 131t-129 50q-150 0 -225 -125v-756h-266v778l-19 307h236l24 -143q117 170 353 170q168 0 251 -104t83 -265v-743z" />
    <glyph glyph-name="Eng" unicode="&#x14a;" horiz-adv-x="1382" 
d="M1257 1597v-1652q0 -381 -378 -381q-115 0 -168 26v222q29 -14 109 -14t124 32q43 33 47 123l-614 1149l8 -338v-764h-260v1597h291l590 -1101l-9 338v763h260z" />
    <glyph glyph-name="eng" unicode="&#x14b;" horiz-adv-x="1153" 
d="M780 -27v727q0 180 -170 181q-150 0 -225 -125v-756h-266v778l-19 307h236l24 -143q117 170 353 170q168 0 251 -104t83 -265v-800q0 -379 -379 -379q-109 0 -168 26v222q38 -16 116 -16t121 37q43 38 43 140z" />
    <glyph glyph-name="Omacron" unicode="&#x14c;" horiz-adv-x="1361" 
d="M399 1747v172h566v-172h-566zM672 213h18q164 0 233 133t68 412v82q-1 280 -69 412t-232 132h-18q-164 0 -233 -133t-68 -411v-82q1 -279 69 -412t232 -133zM682 -27q-304 1 -448 187t-144 598v82q0 412 144 598t448 186t446 -187q143 -187 144 -597v-82
q0 -410 -144 -598t-446 -187z" />
    <glyph glyph-name="omacron" unicode="&#x14d;" horiz-adv-x="1132" 
d="M281 1296v236h569v-236h-569zM565 207q225 0 226 303v65q0 305 -226 306q-225 0 -225 -306v-65q0 -303 225 -303zM565 -27q-247 1 -369 147t-122 390v65q0 245 123 391t369 146t368 -145q123 -145 123 -392v-65q0 -244 -123 -390t-369 -147z" />
    <glyph glyph-name="Obreve" unicode="&#x14e;" horiz-adv-x="1361" 
d="M682 1692q-350 0 -350 254h188q0 -100 162 -100t162 100h188q0 -254 -350 -254zM672 213h18q164 0 233 133t68 412v82q-1 280 -69 412t-232 132h-18q-164 0 -233 -133t-68 -411v-82q1 -279 69 -412t232 -133zM682 -27q-304 1 -448 187t-144 598v82q0 412 144 598t448 186
t446 -187q143 -187 144 -597v-82q0 -410 -144 -598t-446 -187z" />
    <glyph glyph-name="obreve" unicode="&#x14f;" horiz-adv-x="1132" 
d="M565 1206q-193 0 -281 104t-85 287h196q0 -186 170 -186t170 186h197q4 -183 -85 -287t-282 -104zM565 207q225 0 226 303v65q0 305 -226 306q-225 0 -225 -306v-65q0 -303 225 -303zM565 -27q-247 1 -369 147t-122 390v65q0 245 123 391t369 146t368 -145
q123 -145 123 -392v-65q0 -244 -123 -390t-369 -147z" />
    <glyph glyph-name="Ohungarumlaut" unicode="&#x150;" horiz-adv-x="1361" 
d="M836 1946h254l-129 -226h-242zM508 1946h254l-117 -226h-242zM672 213h18q164 0 233 133t68 412v82q-1 280 -69 412t-232 132h-18q-164 0 -233 -133t-68 -411v-82q1 -279 69 -412t232 -133zM682 -27q-304 1 -448 187t-144 598v82q0 412 144 598t448 186t446 -187
q143 -187 144 -597v-82q0 -410 -144 -598t-446 -187z" />
    <glyph glyph-name="ohungarumlaut" unicode="&#x151;" horiz-adv-x="1132" 
d="M455 1597h239l-174 -366h-215zM795 1597h239l-211 -366h-215zM565 207q225 0 226 303v65q0 305 -226 306q-225 0 -225 -306v-65q0 -303 225 -303zM565 -27q-247 1 -369 147t-122 390v65q0 245 123 391t369 146t368 -145q123 -145 123 -392v-65q0 -244 -123 -390
t-369 -147z" />
    <glyph glyph-name="OE" unicode="&#x152;" horiz-adv-x="1925" 
d="M893 1358h-129q-213 0 -303 -122t-90 -396v-82q0 -274 90 -396t303 -122h129v1118zM90 840q0 408 157 582t498 175h1098v-239h-676v-424h574v-238h-574v-456h676v-240h-1098q-343 0 -499 175t-156 583v82z" />
    <glyph glyph-name="oe" unicode="&#x153;" horiz-adv-x="1847" 
d="M1283 905q-210 0 -226 -264h448q-12 264 -222 264zM340 510q0 -303 225 -303t226 303v65q0 305 -226 306q-225 0 -225 -306v-65zM1774 444h-717q14 -264 243 -264q102 0 162 50q59 50 60 118h252v-8q0 -154 -126 -260t-361 -106t-359 169q-123 -170 -366 -170
q-244 1 -366 147t-122 390v65q0 245 123 391t365 146t366 -170q124 170 362 170t361 -150t123 -393v-125z" />
    <glyph glyph-name="Racute" unicode="&#x154;" horiz-adv-x="1251" 
d="M575 1946h281l-129 -226h-266zM399 836h236q246 0 246 249v23q0 250 -246 250h-236v-522zM399 596v-596h-274v1597h500q535 0 534 -479v-41q0 -336 -260 -438l260 -639h-297l-229 596h-234z" />
    <glyph glyph-name="racute" unicode="&#x155;" horiz-adv-x="753" 
d="M453 1597h290l-211 -366h-266zM682 852h-45q-176 0 -252 -115v-737h-266v778l-19 307h236l22 -131q109 158 293 158l31 -2v-258z" />
    <glyph glyph-name="Rcommaaccent" unicode="&#x156;" horiz-adv-x="1251" 
d="M739 -96v-115q1 -127 -67 -186t-207 -60v101q135 0 166 84h-142v176h250zM399 836h236q246 0 246 249v23q0 250 -246 250h-236v-522zM399 596v-596h-274v1597h500q535 0 534 -479v-41q0 -336 -260 -438l260 -639h-297l-229 596h-234z" />
    <glyph glyph-name="rcommaaccent" unicode="&#x157;" horiz-adv-x="753" 
d="M375 -96v-115q0 -127 -68 -186t-207 -60v101q135 0 166 84h-141v176h250zM682 852h-45q-176 0 -252 -115v-737h-266v778l-19 307h236l22 -131q109 158 293 158l31 -2v-258z" />
    <glyph glyph-name="Rcaron" unicode="&#x158;" horiz-adv-x="1251" 
d="M217 1946h246l131 -105l131 105h246l-244 -226h-266zM399 836h236q246 0 246 249v23q0 250 -246 250h-236v-522zM399 596v-596h-274v1597h500q535 0 534 -479v-41q0 -336 -260 -438l260 -639h-297l-229 596h-234z" />
    <glyph glyph-name="rcaron" unicode="&#x159;" horiz-adv-x="753" 
d="M0 1597h240l159 -188l160 188h240l-273 -366h-254zM682 852h-45q-176 0 -252 -115v-737h-266v778l-19 307h236l22 -131q109 158 293 158l31 -2v-258z" />
    <glyph glyph-name="Sacute" unicode="&#x15a;" horiz-adv-x="1271" 
d="M618 1946h281l-129 -226h-266zM90 1141v20q0 213 144 338t414 125t402 -133t132 -406v-47h-275q0 180 -63 264t-205 82h-18q-113 0 -182 -57t-68 -151v-13q-1 -104 65 -159t246 -80q266 -38 390 -142t124 -311v-22q0 -225 -146 -351t-413 -125q-561 0 -561 545v21h274
q0 -326 277 -326h18q127 0 199 61t71 164v13q0 106 -71 163q-72 57 -250 82q-262 36 -383 142t-121 303z" />
    <glyph glyph-name="sacute" unicode="&#x15b;" horiz-adv-x="1077" 
d="M592 1597h291l-211 -366h-266zM539 180q92 0 139 37t47 103t-45 95q-45 30 -162 40q-225 18 -321 87t-97 212v16q0 168 120 255t319 87q440 0 440 -371v-10h-260q0 174 -180 174q-84 0 -130 -35q-47 -35 -47 -96t42 -91t157 -38q221 -18 325 -84t105 -221v-14
q1 -164 -115 -258t-338 -94t-337 100t-115 258v8h264q1 -160 189 -160z" />
    <glyph glyph-name="Scircumflex" unicode="&#x15c;" horiz-adv-x="1271" 
d="M506 1720h-246l244 226h266l244 -226h-246l-131 103zM90 1141v20q0 213 144 338t414 125t402 -133t132 -406v-47h-275q0 180 -63 264t-205 82h-18q-113 0 -182 -57t-68 -151v-13q-1 -104 65 -159t246 -80q266 -38 390 -142t124 -311v-22q0 -225 -146 -351t-413 -125
q-561 0 -561 545v21h274q0 -326 277 -326h18q127 0 199 61t71 164v13q0 106 -71 163q-72 57 -250 82q-262 36 -383 142t-121 303z" />
    <glyph glyph-name="scircumflex" unicode="&#x15d;" horiz-adv-x="1077" 
d="M379 1231h-240l273 366h254l272 -366h-240l-159 188zM539 180q92 0 139 37t47 103t-45 95q-45 30 -162 40q-225 18 -321 87t-97 212v16q0 168 120 255t319 87q440 0 440 -371v-10h-260q0 174 -180 174q-84 0 -130 -35q-47 -35 -47 -96t42 -91t157 -38q221 -18 325 -84
t105 -221v-14q1 -164 -115 -258t-338 -94t-337 100t-115 258v8h264q1 -160 189 -160z" />
    <glyph glyph-name="Scedilla" unicode="&#x15e;" horiz-adv-x="1271" 
d="M625 -301q97 0 98 51q0 51 -109 51l-69 -8l-35 53l49 131q-483 35 -483 541v21h274q0 -326 277 -326h18q127 0 199 61t71 164v13q0 106 -71 163q-72 57 -250 82q-262 36 -383 142t-121 303v20q0 213 144 338t414 125t402 -133t132 -406v-47h-275q0 180 -63 264t-205 82
h-18q-113 0 -182 -57t-68 -151v-13q-1 -104 65 -159t246 -80q266 -38 390 -142t124 -311v-22q0 -213 -130 -336t-372 -138l-24 -67q88 -4 146 -47t58 -125q0 -174 -233 -174q-137 0 -209 49l41 121q55 -33 152 -33z" />
    <glyph glyph-name="scedilla" unicode="&#x15f;" horiz-adv-x="1077" 
d="M527 -301q97 0 98 51q0 51 -109 51l-70 -8l-34 53l49 131q-187 19 -281 115t-94 240v8h264q0 -160 189 -160q92 0 139 37t47 103t-45 95q-45 30 -162 40q-225 18 -321 87t-97 212v16q0 168 120 255t319 87q440 0 440 -371v-10h-260q0 174 -180 174q-84 0 -130 -35
q-47 -35 -47 -96t42 -91t157 -38q221 -18 325 -84t105 -221v-14q0 -154 -101 -245t-294 -106l-25 -67q89 -4 147 -47t58 -125q0 -174 -233 -174q-137 0 -209 49l41 121q55 -33 152 -33z" />
    <glyph glyph-name="Scaron" unicode="&#x160;" horiz-adv-x="1271" 
d="M260 1946h246l131 -105l131 105h246l-244 -226h-266zM90 1141v20q0 213 144 338t414 125t402 -133t132 -406v-47h-275q0 180 -63 264t-205 82h-18q-113 0 -182 -57t-68 -151v-13q-1 -104 65 -159t246 -80q266 -38 390 -142t124 -311v-22q0 -225 -146 -351t-413 -125
q-561 0 -561 545v21h274q0 -326 277 -326h18q127 0 199 61t71 164v13q0 106 -71 163q-72 57 -250 82q-262 36 -383 142t-121 303z" />
    <glyph glyph-name="scaron" unicode="&#x161;" horiz-adv-x="1077" 
d="M139 1597h240l160 -188l159 188h240l-272 -366h-254zM539 180q92 0 139 37t47 103t-45 95q-45 30 -162 40q-225 18 -321 87t-97 212v16q0 168 120 255t319 87q440 0 440 -371v-10h-260q0 174 -180 174q-84 0 -130 -35q-47 -35 -47 -96t42 -91t157 -38q221 -18 325 -84
t105 -221v-14q1 -164 -115 -258t-338 -94t-337 100t-115 258v8h264q1 -160 189 -160z" />
    <glyph glyph-name="Tcommaaccent" unicode="&#x162;" horiz-adv-x="1114" 
d="M682 -96v-115q0 -127 -68 -186t-206 -60v101q135 0 165 84h-141v176h250zM694 1358v-1358h-274v1358h-381v239h1036v-239h-381z" />
    <glyph glyph-name="tcommaaccent" unicode="&#x163;" horiz-adv-x="862" 
d="M608 -96v-115q0 -127 -68 -186t-206 -60v101q135 0 166 84h-142v176h250zM479 1085h301v-233h-301v-469q0 -102 43 -139t126 -37t112 14v-221q-53 -27 -168 -27q-379 0 -379 381v498h-166v233h166v308h266v-308z" />
    <glyph glyph-name="Tcaron" unicode="&#x164;" horiz-adv-x="1114" 
d="M180 1946h246l131 -105l131 105h246l-244 -226h-266zM694 1358v-1358h-274v1358h-381v239h1036v-239h-381z" />
    <glyph glyph-name="tcaron" unicode="&#x165;" horiz-adv-x="862" 
d="M604 1638h174l-47 -407h-127v407zM479 1085h301v-233h-301v-469q0 -102 43 -139t126 -37t112 14v-221q-53 -27 -168 -27q-379 0 -379 381v498h-166v233h166v308h266v-308z" />
    <glyph glyph-name="Tbar" unicode="&#x166;" horiz-adv-x="1114" 
d="M694 1358v-436h242v-209h-242v-713h-274v713h-242v209h242v436h-381v239h1036v-239h-381z" />
    <glyph glyph-name="tbar" unicode="&#x167;" horiz-adv-x="862" 
d="M479 1085h301v-233h-301v-211h219v-197h-219v-61q0 -102 43 -139t126 -37t112 14v-221q-53 -27 -168 -27q-379 0 -379 381v90h-141v197h141v211h-166v233h166v308h266v-308z" />
    <glyph glyph-name="Utilde" unicode="&#x168;" horiz-adv-x="1341" 
d="M1227 502q0 -274 -129 -402t-427 -127q-298 0 -427 127t-129 402v1095h274v-1085q0 -160 65 -230q66 -70 218 -69q152 0 216 70t64 229v1085h275v-1095zM879 1931h149q0 -117 -53 -171t-133 -54t-176 51t-129 51q-72 0 -72 -73h-150q-1 117 53 171t134 54t176 -51
t129 -51q72 -1 72 73z" />
    <glyph glyph-name="utilde" unicode="&#x169;" horiz-adv-x="1153" 
d="M770 1565h182q0 -147 -57 -219t-139 -72t-184 54q-101 54 -136 54q-68 0 -67 -79h-183q0 147 58 219t139 72q82 0 183 -55q101 -54 136 -54q68 0 68 80zM106 1085h265v-700q0 -178 174 -178q147 0 225 123v755h266v-778l17 -307h-236l-24 143q-117 -170 -353 -170
q-168 1 -251 105t-83 266v741z" />
    <glyph glyph-name="Umacron" unicode="&#x16a;" horiz-adv-x="1341" 
d="M389 1747v172h565v-172h-565zM1227 502q0 -274 -129 -402t-427 -127q-298 0 -427 127t-129 402v1095h274v-1085q0 -160 65 -230q66 -70 218 -69q152 0 216 70t64 229v1085h275v-1095z" />
    <glyph glyph-name="umacron" unicode="&#x16b;" horiz-adv-x="1153" 
d="M285 1296v236h569v-236h-569zM106 1085h265v-700q0 -178 174 -178q147 0 225 123v755h266v-778l17 -307h-236l-24 143q-117 -170 -353 -170q-168 1 -251 105t-83 266v741z" />
    <glyph glyph-name="Ubreve" unicode="&#x16c;" horiz-adv-x="1341" 
d="M1227 502q0 -274 -129 -402t-427 -127q-298 0 -427 127t-129 402v1095h274v-1085q0 -160 65 -230q66 -70 218 -69q152 0 216 70t64 229v1085h275v-1095zM672 1692q-350 0 -350 254h188q0 -100 162 -100t162 100h188q0 -254 -350 -254z" />
    <glyph glyph-name="ubreve" unicode="&#x16d;" horiz-adv-x="1153" 
d="M569 1206q-193 0 -281 104t-85 287h196q0 -186 170 -186t170 186h197q4 -183 -85 -287t-282 -104zM106 1085h265v-700q0 -178 174 -178q147 0 225 123v755h266v-778l17 -307h-236l-24 143q-117 -170 -353 -170q-168 1 -251 105t-83 266v741z" />
    <glyph glyph-name="Uring" unicode="&#x16e;" horiz-adv-x="1341" 
d="M565 1762q0 -44 31 -76t76 -31q45 0 76 32q30 31 30 75t-30 76q-31 32 -76 32t-76 -32t-31 -76zM463 1762q0 86 61 148q62 62 148 62t147 -61t61 -149t-60 -147q-62 -61 -148 -61t-148 60t-61 148zM1227 502q0 -274 -129 -402t-427 -127q-298 0 -427 127t-129 402v1095
h274v-1085q0 -160 65 -230q66 -70 218 -69q152 0 216 70t64 229v1085h275v-1095z" />
    <glyph glyph-name="uring" unicode="&#x16f;" horiz-adv-x="1153" 
d="M569 1522q-45 0 -75 -32t-31 -76q0 -44 31 -76q32 -32 76 -32t75 32t31 76t-31 76t-76 32zM360 1414q0 86 62 148t147 62t147 -61t62 -149t-61 -147q-61 -61 -147 -61t-148 60t-62 148zM106 1085h265v-700q0 -178 174 -178q147 0 225 123v755h266v-778l17 -307h-236
l-24 143q-117 -170 -353 -170q-168 1 -251 105t-83 266v741z" />
    <glyph glyph-name="Uhungarumlaut" unicode="&#x170;" horiz-adv-x="1341" 
d="M498 1946h254l-117 -226h-242zM825 1946h254l-129 -226h-241zM1227 502q0 -274 -129 -402t-427 -127q-298 0 -427 127t-129 402v1095h274v-1085q0 -160 65 -230q66 -70 218 -69q152 0 216 70t64 229v1085h275v-1095z" />
    <glyph glyph-name="uhungarumlaut" unicode="&#x171;" horiz-adv-x="1153" 
d="M799 1597h239l-211 -366h-215zM459 1597h239l-174 -366h-215zM106 1085h265v-700q0 -178 174 -178q147 0 225 123v755h266v-778l17 -307h-236l-24 143q-117 -170 -353 -170q-168 1 -251 105t-83 266v741z" />
    <glyph glyph-name="Uogonek" unicode="&#x172;" horiz-adv-x="1341" 
d="M766 -154q0 -92 102 -92q50 0 93 25l63 -168q-80 -49 -202 -49t-192 54t-69 162q0 108 72 195q-279 7 -399 135t-119 394v1095h274v-1085q0 -160 65 -230q66 -70 218 -69q152 0 216 70t64 229v1085h275v-1095q0 -215 -76 -336t-244 -166q-63 -16 -102 -62t-39 -92z" />
    <glyph glyph-name="uogonek" unicode="&#x173;" horiz-adv-x="1153" 
d="M106 1085h265v-700q0 -178 174 -178q147 0 225 123v755h266v-778l17 -307h-2q-139 -61 -140 -162q0 -36 26 -60t77 -24t92 25l63 -168q-79 -49 -201 -49t-192 54t-69 161q0 141 108 235l-22 131q-117 -170 -353 -170q-168 1 -251 105t-83 266v741z" />
    <glyph glyph-name="Wcircumflex" unicode="&#x174;" horiz-adv-x="1892" 
d="M815 1720h-246l244 226h266l244 -226h-246l-131 103zM1208 -8l-262 1294l-264 -1294h-354l-275 1605h287l182 -1237l250 1237h346l252 -1237l182 1237h287l-274 -1605h-357z" />
    <glyph glyph-name="wcircumflex" unicode="&#x175;" horiz-adv-x="1536" 
d="M608 1231h-239l272 366h254l272 -366h-239l-160 188zM768 805l-182 -805h-338l-201 1085h260l117 -798l184 798h320l184 -798l117 798h262l-203 -1085h-338z" />
    <glyph glyph-name="Ycircumflex" unicode="&#x176;" horiz-adv-x="1249" 
d="M494 1720h-246l244 226h266l243 -226h-245l-131 103zM762 0h-275v487l-462 1110h299l301 -772l301 772h299l-463 -1110v-487z" />
    <glyph glyph-name="ycircumflex" unicode="&#x177;" horiz-adv-x="1085" 
d="M389 1231h-239l272 366h254l272 -366h-239l-160 188zM549 332l239 753h287l-383 -1032l-143 -463h-316l173 463l-383 1032h288z" />
    <glyph glyph-name="Ydieresis" unicode="&#x178;" horiz-adv-x="1249" 
d="M571 1927v-188h-239v188h239zM918 1927v-188h-240v188h240zM762 0h-275v487l-462 1110h299l301 -772l301 772h299l-463 -1110v-487z" />
    <glyph glyph-name="Zacute" unicode="&#x179;" horiz-adv-x="1202" 
d="M102 1358v239h998v-188l-682 -1176l280 7h422v-240h-1038v188l682 1176l-281 -6h-381zM580 1946h280l-129 -226h-266z" />
    <glyph glyph-name="zacute" unicode="&#x17a;" horiz-adv-x="1001" 
d="M78 852v233h846v-182l-518 -676l231 6h307v-233h-887v182l518 676l-231 -6h-266zM553 1597h291l-211 -366h-266z" />
    <glyph glyph-name="Zdotaccent" unicode="&#x17b;" horiz-adv-x="1202" 
d="M102 1358v239h998v-188l-682 -1176l280 7h422v-240h-1038v188l682 1176l-281 -6h-381zM717 1927v-188h-238v188h238z" />
    <glyph glyph-name="zdotaccent" unicode="&#x17c;" horiz-adv-x="1001" 
d="M78 852v233h846v-182l-518 -676l231 6h307v-233h-887v182l518 676l-231 -6h-266zM645 1563v-289h-291v289h291z" />
    <glyph glyph-name="Zcaron" unicode="&#x17d;" horiz-adv-x="1202" 
d="M102 1358v239h998v-188l-682 -1176l280 7h422v-240h-1038v188l682 1176l-281 -6h-381zM221 1946h246l131 -105l131 105h246l-244 -226h-266z" />
    <glyph glyph-name="zcaron" unicode="&#x17e;" horiz-adv-x="1001" 
d="M78 852v233h846v-182l-518 -676l231 6h307v-233h-887v182l518 676l-231 -6h-266zM100 1597h240l160 -188l159 188h240l-272 -366h-254z" />
    <glyph glyph-name="Scommaaccent" unicode="&#x218;" horiz-adv-x="1271" 
d="M762 -96v-115q0 -127 -68 -186t-207 -60v101q135 0 166 84h-141v176h250zM90 1141v20q0 213 144 338t414 125t402 -133t132 -406v-47h-275q0 180 -63 264t-205 82h-18q-113 0 -182 -57t-68 -151v-13q-1 -104 65 -159t246 -80q266 -38 390 -142t124 -311v-22
q0 -225 -146 -351t-413 -125q-561 0 -561 545v21h274q0 -326 277 -326h18q127 0 199 61t71 164v13q0 106 -71 163q-72 57 -250 82q-262 36 -383 142t-121 303z" />
    <glyph glyph-name="scommaaccent" unicode="&#x219;" horiz-adv-x="1077" 
d="M664 -96v-115q0 -127 -68 -186t-207 -60v101q135 0 166 84h-141v176h250zM539 180q92 0 139 37t47 103t-45 95q-45 30 -162 40q-225 18 -321 87t-97 212v16q0 168 120 255t319 87q440 0 440 -371v-10h-260q0 174 -180 174q-84 0 -130 -35q-47 -35 -47 -96t42 -91t157 -38
q221 -18 325 -84t105 -221v-14q1 -164 -115 -258t-338 -94t-337 100t-115 258v8h264q1 -160 189 -160z" />
    <glyph glyph-name="Ymacron" unicode="&#x232;" horiz-adv-x="1249" 
d="M342 1747v172h565v-172h-565zM762 0h-275v487l-462 1110h299l301 -772l301 772h299l-463 -1110v-487z" />
    <glyph glyph-name="ymacron" unicode="&#x233;" horiz-adv-x="1085" 
d="M264 1296v236h570v-236h-570zM549 332l239 753h287l-383 -1032l-143 -463h-316l173 463l-383 1032h288z" />
    <glyph glyph-name="dotlessj" unicode="&#x237;" horiz-adv-x="516" 
d="M123 -27v1112h266v-1140q0 -381 -379 -381q-115 0 -168 26v222q33 -14 114 -14t124 36q43 37 43 139z" />
    <glyph glyph-name="circumflex" unicode="&#x2c6;" horiz-adv-x="1024" 
d="M352 1231h-239l272 366h254l272 -366h-239l-160 188z" />
    <glyph glyph-name="caron" unicode="&#x2c7;" horiz-adv-x="1024" 
d="M113 1597h239l160 -188l160 188h239l-272 -366h-254z" />
    <glyph glyph-name="breve" unicode="&#x2d8;" horiz-adv-x="1024" 
d="M512 1206q-193 0 -282 104t-85 287h197q0 -186 170 -186t170 186h197q4 -183 -85 -287t-282 -104z" />
    <glyph glyph-name="dotaccent" unicode="&#x2d9;" horiz-adv-x="1024" 
d="M657 1563v-289h-290v289h290z" />
    <glyph glyph-name="ring" unicode="&#x2da;" horiz-adv-x="1024" 
d="M512 1522q-46 0 -76 -32t-30 -76t30 -76t76 -32q45 0 76 32q30 32 30 76t-30 76q-31 32 -76 32zM303 1414q-1 86 61 148t148 62t147 -61t61 -149t-60 -147q-62 -61 -148 -61t-148 60t-61 148z" />
    <glyph glyph-name="ogonek" unicode="&#x2db;" horiz-adv-x="1232" 
d="M509 -438q-261 0 -261 224q0 116 86 206t209 129l49 -121q-139 -62 -139 -162q-1 -36 25 -60t77 -24t92 25l64 -168q-80 -49 -202 -49z" />
    <glyph glyph-name="tilde" unicode="&#x2dc;" horiz-adv-x="1024" 
d="M713 1565h182q0 -147 -57 -219q-58 -72 -140 -72t-183 54t-136 54q-68 0 -68 -79h-182q0 147 57 219q58 72 140 72t183 -55q101 -54 136 -54q68 0 68 80z" />
    <glyph glyph-name="hungarumlaut" unicode="&#x2dd;" horiz-adv-x="1024" 
d="M401 1597h240l-174 -366h-215zM741 1597h240l-211 -366h-215z" />
    <glyph glyph-name="Bdotaccent" unicode="&#x1e02;" horiz-adv-x="1263" 
d="M713 1927v-188h-238v188h238zM614 1358h-215v-420h215q225 0 226 197v26q-1 197 -226 197zM645 698h-246v-458h246q100 0 168 51t68 166v22q0 115 -68 167t-168 52zM125 1597h489q504 0 504 -430v-41q0 -213 -178 -303q219 -94 219 -334v-40q0 -449 -524 -449h-510v1597z
" />
    <glyph glyph-name="bdotaccent" unicode="&#x1e03;" horiz-adv-x="1153" 
d="M369 1927v-188h-238v188h238zM596 207q215 0 215 303v65q0 305 -215 306q-133 0 -213 -125v-426q78 -123 213 -123zM383 1638v-653q106 127 289 127q406 0 405 -537v-65q0 -248 -97 -392t-307 -144t-315 161l-22 -135h-236l17 307v1331h266z" />
    <glyph glyph-name="Ddotaccent" unicode="&#x1e0a;" horiz-adv-x="1341" 
d="M748 1927v-188h-238v188h238zM399 240h181q211 0 301 122t90 396v82q0 274 -90 396t-301 122h-181v-1118zM1251 758q-1 -408 -157 -583t-498 -175h-471v1597h471q342 0 499 -175t156 -582v-82z" />
    <glyph glyph-name="ddotaccent" unicode="&#x1e0b;" horiz-adv-x="1165" 
d="M1032 1927v-188h-237v188h237zM567 881q-215 0 -215 -306v-65q0 -303 215 -303q139 0 213 123v426q-76 125 -213 125zM494 1112q180 0 286 -127v653h267v-1331l16 -307h-236l-22 135q-104 -162 -313 -162q-210 1 -308 145t-98 392v65q0 250 97 394q98 143 311 143z" />
    <glyph glyph-name="Fdotaccent" unicode="&#x1e1e;" horiz-adv-x="1101" 
d="M727 1927v-188h-238v188h238zM125 1597h936v-239h-662v-424h559v-238h-559v-696h-274v1597z" />
    <glyph glyph-name="fdotaccent" unicode="&#x1e1f;" horiz-adv-x="821" 
d="M616 1927v-188h-237v188h237zM479 1255v-170h260v-233h-260v-852h-266v852h-166v233h166v201q0 379 379 379q115 0 168 -27v-221q-33 17 -114 17t-124 -38t-43 -141z" />
    <glyph glyph-name="Mdotaccent" unicode="&#x1e40;" horiz-adv-x="1738" 
d="M987 1927v-188h-237v188h237zM399 0h-274v1597h403l340 -1122l342 1122h404v-1597h-275v791l9 329l-342 -1120h-275l-340 1120l8 -329v-791z" />
    <glyph glyph-name="mdotaccent" unicode="&#x1e41;" horiz-adv-x="1728" 
d="M1018 1563v-289h-291v289h291zM1624 0h-266v719q0 162 -154 162q-123 0 -200 -117v-764h-265v719q0 162 -155 162q-125 0 -199 -117v-764h-266v778l-19 307h236l22 -135q115 162 326 162t285 -172q111 172 338 172q157 0 237 -96t80 -256v-760z" />
    <glyph glyph-name="Pdotaccent" unicode="&#x1e56;" horiz-adv-x="1224" 
d="M715 1927v-188h-238v188h238zM399 836h236q246 0 246 249v23q0 250 -246 250h-236v-522zM399 596v-596h-274v1597h500q535 0 534 -479v-41q0 -481 -534 -481h-226z" />
    <glyph glyph-name="pdotaccent" unicode="&#x1e57;" horiz-adv-x="1153" 
d="M739 1563v-289h-290v289h290zM596 207q215 0 215 303v65q0 305 -215 306q-133 0 -213 -125v-426q78 -123 213 -123zM1077 510q0 -248 -97 -392q-98 -144 -296 -145q-198 0 -301 127v-510h-266v1188l-17 307h236l22 -135q104 162 314 162q406 0 405 -537v-65z" />
    <glyph glyph-name="Tdotaccent" unicode="&#x1e6a;" horiz-adv-x="1114" 
d="M676 1927v-188h-238v188h238zM694 1358v-1358h-274v1358h-381v239h1036v-239h-381z" />
    <glyph glyph-name="tdotaccent" unicode="&#x1e6b;" horiz-adv-x="862" 
d="M465 1681v-188h-238v188h238zM479 1085h301v-233h-301v-469q0 -102 43 -139t126 -37t112 14v-221q-53 -27 -168 -27q-379 0 -379 381v498h-166v233h166v308h266v-308z" />
    <glyph glyph-name="Wgrave" unicode="&#x1e80;" horiz-adv-x="1892" 
d="M684 1946h281l114 -226h-266zM1208 -8l-262 1294l-264 -1294h-354l-275 1605h287l182 -1237l250 1237h346l252 -1237l182 1237h287l-274 -1605h-357z" />
    <glyph glyph-name="wgrave" unicode="&#x1e81;" horiz-adv-x="1536" 
d="M424 1597h291l186 -366h-266zM768 805l-182 -805h-338l-201 1085h260l117 -798l184 798h320l184 -798l117 798h262l-203 -1085h-338z" />
    <glyph glyph-name="Wacute" unicode="&#x1e82;" horiz-adv-x="1892" 
d="M928 1946h280l-129 -226h-266zM1208 -8l-262 1294l-264 -1294h-354l-275 1605h287l182 -1237l250 1237h346l252 -1237l182 1237h287l-274 -1605h-357z" />
    <glyph glyph-name="wacute" unicode="&#x1e83;" horiz-adv-x="1536" 
d="M821 1597h291l-211 -366h-266zM768 805l-182 -805h-338l-201 1085h260l117 -798l184 798h320l184 -798l117 798h262l-203 -1085h-338z" />
    <glyph glyph-name="Wdieresis" unicode="&#x1e84;" horiz-adv-x="1892" 
d="M1239 1927v-188h-240v188h240zM893 1927v-188h-240v188h240zM1208 -8l-262 1294l-264 -1294h-354l-275 1605h287l182 -1237l250 1237h346l252 -1237l182 1237h287l-274 -1605h-357z" />
    <glyph glyph-name="wdieresis" unicode="&#x1e85;" horiz-adv-x="1536" 
d="M1118 1563v-289h-291v289h291zM709 1563v-289h-291v289h291zM768 805l-182 -805h-338l-201 1085h260l117 -798l184 798h320l184 -798l117 798h262l-203 -1085h-338z" />
    <glyph glyph-name="Eszett" unicode="&#x1e9e;" horiz-adv-x="1617" 
d="M770 1384q-381 0 -381 -299v-1085h-274v1096q0 528 655 528q258 0 432 -80v-188l-258 -418l105 -12q260 -31 387 -140t127 -315v-22q0 -225 -132 -351t-383 -125q-251 0 -374 127t-123 418v21h274q0 -326 226 -326h18q96 0 155 59q58 59 58 166v13q0 209 -287 243
l-372 45v189l276 446q-72 10 -129 10z" />
    <glyph glyph-name="Ygrave" unicode="&#x1ef2;" horiz-adv-x="1249" 
d="M362 1946h281l115 -226h-266zM762 0h-275v487l-462 1110h299l301 -772l301 772h299l-463 -1110v-487z" />
    <glyph glyph-name="ygrave" unicode="&#x1ef3;" horiz-adv-x="1085" 
d="M205 1597h291l186 -366h-266zM549 332l239 753h287l-383 -1032l-143 -463h-316l173 463l-383 1032h288z" />
    <glyph glyph-name="enspace" unicode="&#x2002;" horiz-adv-x="1024" 
 />
    <glyph glyph-name="emspace" unicode="&#x2003;" horiz-adv-x="2048" 
 />
    <glyph glyph-name="threeperemspace" unicode="&#x2004;" horiz-adv-x="681" 
 />
    <glyph glyph-name="fourperemspace" unicode="&#x2005;" horiz-adv-x="512" 
 />
    <glyph glyph-name="sixperemspace" unicode="&#x2006;" horiz-adv-x="342" 
 />
    <glyph glyph-name="figurespace" unicode="&#x2007;" horiz-adv-x="1228" 
 />
    <glyph glyph-name="punctuationspace" unicode="&#x2008;" horiz-adv-x="368" 
 />
    <glyph glyph-name="thinspace" unicode="&#x2009;" horiz-adv-x="307" 
 />
    <glyph glyph-name="hairspace" unicode="&#x200a;" horiz-adv-x="102" 
 />
    <glyph glyph-name="zerowidthspace" unicode="&#x200b;" horiz-adv-x="0" 
 />
    <glyph glyph-name="figuredash" unicode="&#x2012;" horiz-adv-x="1228" 
d="M82 600v234h1065v-234h-1065z" />
    <glyph glyph-name="endash" unicode="&#x2013;" horiz-adv-x="1024" 
d="M82 600v234h860v-234h-860z" />
    <glyph glyph-name="emdash" unicode="&#x2014;" horiz-adv-x="2048" 
d="M82 600v234h1884v-234h-1884z" />
    <glyph glyph-name="uni2015" unicode="&#x2015;" horiz-adv-x="2457" 
d="M82 600v234h2294v-234h-2294z" />
    <glyph glyph-name="doublebar" unicode="&#x2016;" horiz-adv-x="856" 
d="M477 -246v1966h260v-1966h-260zM117 -246v1966h262v-1966h-262z" />
    <glyph glyph-name="quoteleft" unicode="&#x2018;" horiz-adv-x="512" 
d="M88 1077v230q0 338 313 338v-140q-150 0 -170 -139h148v-289h-291z" />
    <glyph glyph-name="quoteright" unicode="&#x2019;" horiz-adv-x="512" 
d="M401 1597v-229q0 -338 -313 -338v139q145 0 170 140h-147v288h290z" />
    <glyph glyph-name="quotesinglbase" unicode="&#x201a;" horiz-adv-x="512" 
d="M401 289v-228q0 -338 -313 -337v139q145 0 170 137h-147v289h290z" />
    <glyph glyph-name="reversequoteleft" unicode="&#x201b;" horiz-adv-x="512" 
d="M88 1597h291v-288h-148q20 -139 170 -140v-139q-313 0 -313 338v229z" />
    <glyph glyph-name="quotedblleft" unicode="&#x201c;" horiz-adv-x="911" 
d="M487 1077v230q0 338 314 338v-140q-150 0 -170 -139h147v-289h-291zM88 1077v230q0 338 313 338v-140q-150 0 -170 -139h148v-289h-291z" />
    <glyph glyph-name="quotedblright" unicode="&#x201d;" horiz-adv-x="911" 
d="M801 1597v-229q0 -338 -314 -338v139q145 0 170 140h-145v288h289zM401 1597v-229q0 -338 -313 -338v139q145 0 170 140h-147v288h290z" />
    <glyph glyph-name="quotedblbase" unicode="&#x201e;" horiz-adv-x="911" 
d="M801 289v-228q0 -338 -314 -337v139q145 0 170 137h-145v289h289zM401 289v-228q0 -338 -313 -337v139q145 0 170 137h-147v289h290z" />
    <glyph glyph-name="reversequotedblleft" unicode="&#x201f;" horiz-adv-x="911" 
d="M88 1597h291v-288h-148q20 -139 170 -140v-139q-313 0 -313 338v229zM487 1597h291v-288h-147q20 -139 170 -140v-139q-313 0 -314 338v229z" />
    <glyph glyph-name="dagger" unicode="&#x2020;" horiz-adv-x="829" 
d="M47 1184v159l275 -10v-139zM782 1343v-159l-274 10v139zM336 1638h158l-11 -280h-137zM336 907l10 262h137l11 -262l-11 -262h-137z" />
    <glyph glyph-name="daggerdbl" unicode="&#x2021;" horiz-adv-x="829" 
d="M782 1343v-159l-274 10v139zM47 715v159l275 -10v-139zM47 1184v159l275 -10v-139zM782 874v-159l-274 10v139zM336 1028l10 141h137l11 -141l-11 -139h-137zM336 1638h158l-11 -280h-137zM336 438l10 262h137l11 -262l-11 -262h-137z" />
    <glyph glyph-name="bullet" unicode="&#x2022;" horiz-adv-x="880" 
d="M750 1026v-618h-619v618h619z" />
    <glyph glyph-name="ellipsis" unicode="&#x2026;" horiz-adv-x="2048" 
d="M1169 289v-289h-290v289h290zM1825 289v-289h-291v289h291zM514 289v-289h-291v289h291z" />
    <glyph glyph-name="perthousand" unicode="&#x2030;" horiz-adv-x="2791" 
d="M608 1251q0 78 -46 123t-120 45h-12q-74 0 -119 -45t-45 -123v-28q0 -78 45 -124t119 -46h12q74 0 120 46t46 124v28zM2183 346q0 -78 45 -123t119 -45h12q74 0 120 45t46 123v29q0 78 -46 124t-120 46h-12q-74 0 -119 -46t-45 -124v-29zM1364 346q0 -78 45 -123t119 -45
h12q74 0 120 45t46 123v29q0 78 -46 124t-120 46h-12q-74 0 -119 -46t-45 -124v-29zM1980 373q0 178 104 276q104 99 269 99q166 0 270 -98t105 -277v-23q0 -178 -104 -277t-271 -99q-166 0 -269 98q-103 100 -104 278v23zM1161 373q-1 178 103 276q104 99 270 99t270 -98
t105 -277v-23q-1 -178 -105 -277t-270 -99t-269 98q-103 100 -104 278v23zM921 1321q-69 0 -116 8q6 -39 6 -82v-22q0 -179 -104 -277q-105 -98 -271 -98t-269 98t-104 277v22q-1 177 103 277t270 100q94 0 176 -35q139 -51 353 -51q117 0 239 22t178 44v-138l-610 -1466
h-237l557 1341q-102 -20 -171 -20z" />
    <glyph glyph-name="tripleprime" unicode="&#x2034;" horiz-adv-x="1177" 
d="M469 1597h240l-19 -626h-203zM803 1597h266l-45 -626h-203zM111 1597h266l-19 -626h-204z" />
    <glyph glyph-name="guilsinglleft" unicode="&#x2039;" horiz-adv-x="641" 
d="M539 1128v-239l-250 -193l250 -192v-240l-437 305v254z" />
    <glyph glyph-name="guilsinglright" unicode="&#x203a;" horiz-adv-x="641" 
d="M102 889v239l437 -305v-254l-437 -305v240l250 192z" />
    <glyph glyph-name="interrobang" unicode="&#x203d;" horiz-adv-x="991" 
d="M690 1178q0 160 -112 196l-11 -497q101 161 117 240q6 30 6 61zM655 289v-289h-290v289h290zM291 1051h-244v30q1 267 105 405t346 138t346 -116t104 -312t-122 -325q-52 -54 -104 -106q-126 -126 -140 -323h-150l-18 930q-123 -49 -123 -321z" />
    <glyph glyph-name="fraction" unicode="&#x2044;" horiz-adv-x="409" 
d="M-279 0h-213l1180 1597h213z" />
    <glyph glyph-name="uni2070" unicode="&#x2070;" 
d="M371 1372q1 29 -17 45t-45 17h-4q-29 0 -46 -16t-17 -46v-350q0 -27 17 -44t46 -17h4q27 0 44 17t18 44v350zM575 1022q-1 -106 -71 -173t-197 -67t-197 67t-71 173v350q0 106 71 173q72 67 198 67t197 -67t70 -173v-350z" />
    <glyph glyph-name="uni2074" unicode="&#x2074;" 
d="M317 1135v102l2 37l-88 -144l37 5h49zM522 799h-205v155h-292v146l305 497h192v-462h66v-181h-66v-155z" />
    <glyph glyph-name="uni2075" unicode="&#x2075;" 
d="M33 1055h205q0 -94 63 -94h10q66 0 66 88v10q0 86 -76 86h-6q-51 0 -80 -41l-176 59l18 434h512v-178h-340l-6 -110q49 14 94 14q129 0 196 -71t67 -189v-21q0 -120 -69 -190t-204 -70t-205 66t-69 190v17z" />
    <glyph glyph-name="uni2076" unicode="&#x2076;" 
d="M307 1126q-45 0 -69 -36v-25q0 -104 65 -104h6q27 0 46 20t20 53v23q0 70 -62 69h-6zM537 1612v-180q-237 0 -275 -154q45 25 100 25q100 0 158 -69t60 -183v-11q0 -118 -69 -188t-204 -70t-205 82t-69 217v17q0 221 112 368q61 84 155 115t237 31z" />
    <glyph glyph-name="uni2077" unicode="&#x2077;" 
d="M27 1311v286h559v-127l-273 -671h-219l264 622l-90 -2h-63v-108h-178z" />
    <glyph glyph-name="uni2078" unicode="&#x2078;" 
d="M311 1434h-10q-25 0 -42 -18t-17 -44v-10q0 -66 63 -66h4q61 0 62 66v10q1 26 -17 44t-43 18zM301 1116q-63 0 -63 -65v-11q0 -39 18 -59t45 -20h10q29 0 47 20t19 59v11q0 66 -66 65h-10zM307 782q-141 0 -208 75t-66 159v22q0 111 88 170q-82 57 -82 168v21
q0 79 63 147q62 68 204 68t206 -68t63 -147v-21q0 -111 -81 -170q86 -59 86 -168v-22q0 -84 -66 -159t-207 -75z" />
    <glyph glyph-name="uni2079" unicode="&#x2079;" 
d="M305 1268q43 0 72 37v26q0 104 -66 105h-6q-27 0 -46 -20t-19 -56v-21q0 -72 61 -71h4zM76 782v181q170 2 235 79q23 29 39 76q-43 -25 -100 -24q-98 0 -157 68q-58 69 -58 184v10q1 120 69 188t202 68t205 -82t71 -217v-15q0 -217 -113 -370q-61 -82 -155 -114t-238 -32
z" />
    <glyph glyph-name="uni207A" unicode="&#x207a;" 
d="M217 1464h180v-176h176v-180h-176v-176h-180v176h-176v180h176v176z" />
    <glyph glyph-name="uni207B" unicode="&#x207b;" 
d="M41 1108v180h532v-180h-532z" />
    <glyph glyph-name="uni207C" unicode="&#x207c;" 
d="M41 995v179h532v-179h-532zM41 1223v178h532v-178h-532z" />
    <glyph glyph-name="uni207D" unicode="&#x207d;" horiz-adv-x="397" 
d="M37 1188v20q0 248 123 389h209q-129 -193 -129 -389v-20q0 -197 129 -389h-209q-123 139 -123 389z" />
    <glyph glyph-name="uni207E" unicode="&#x207e;" horiz-adv-x="397" 
d="M356 1208v-20q0 -254 -120 -389h-209q127 184 127 389v20q0 205 -127 389h209q120 -139 120 -389z" />
    <glyph glyph-name="uni2080" unicode="&#x2080;" 
d="M371 573q1 29 -17 45t-45 17h-4q-29 -1 -46 -17t-17 -45v-350q0 -27 17 -44t46 -17h4q27 0 44 17t18 44v350zM575 223q-1 -106 -71 -173q-70 -66 -197 -66t-197 66t-71 173v350q0 106 71 173q72 67 198 67t197 -67t70 -173v-350z" />
    <glyph glyph-name="uni2081" unicode="&#x2081;" 
d="M588 0h-527v176h162v373l-98 -66l-102 146l249 168h156v-621h160v-176z" />
    <glyph glyph-name="uni2082" unicode="&#x2082;" 
d="M575 176v-176h-536v129l291 326q41 45 41 84v10q0 86 -60 86h-10q-57 0 -57 -103h-205v19q0 262 268 262q141 0 205 -69t63 -156v-23q0 -69 -20 -111t-68 -96l-165 -182h253z" />
    <glyph glyph-name="uni2083" unicode="&#x2083;" 
d="M311 162q64 0 66 80v10q0 66 -66 65h-106v181h104q61 0 62 65v12q1 27 -17 43t-43 17h-10q-57 0 -57 -103h-205v19q0 262 268 262q141 0 205 -68t63 -147v-20q0 -111 -83 -170q88 -59 88 -170v-21q0 -84 -66 -159q-66 -74 -204 -74t-208 66t-69 190v16h205q0 -94 63 -94
h10z" />
    <glyph glyph-name="uni2084" unicode="&#x2084;" 
d="M317 336v102l2 37l-88 -143l37 4h49zM522 0h-205v156h-292v145l305 498h192v-463h66v-180h-66v-156z" />
    <glyph glyph-name="uni2085" unicode="&#x2085;" 
d="M33 256h205q0 -94 63 -94h10q66 0 66 88v10q0 86 -76 86h-6q-51 0 -80 -41l-176 60l18 434h512v-178h-340l-6 -111q51 14 94 14q129 0 196 -70t67 -190v-20q0 -121 -69 -191q-69 -69 -204 -69t-205 66t-69 190v16z" />
    <glyph glyph-name="uni2086" unicode="&#x2086;" 
d="M307 328q-45 0 -69 -37v-25q0 -104 65 -104h6q27 0 46 20t20 54v22q0 70 -62 70h-6zM537 813v-180q-237 0 -275 -154q45 25 100 25q100 0 158 -69t60 -183v-10q0 -119 -69 -189q-69 -69 -204 -69t-205 82t-69 217v16q0 221 112 369q61 84 155 114t237 31z" />
    <glyph glyph-name="uni2087" unicode="&#x2087;" 
d="M27 512v287h559v-127l-273 -672h-219l264 623l-90 -2h-63v-109h-178z" />
    <glyph glyph-name="uni2088" unicode="&#x2088;" 
d="M311 635h-10q-25 1 -42 -17t-17 -45v-10q0 -66 63 -65h4q61 0 62 65v10q1 27 -17 45t-43 17zM311 162q64 0 66 80v10q0 66 -66 65h-10q-63 0 -63 -65v-10q0 -40 18 -60t45 -20h10zM307 -16q-141 0 -208 74t-66 159v23q0 111 88 170q-82 57 -82 168v20q0 80 63 148
q62 68 204 67q142 0 206 -68t63 -147v-20q0 -111 -81 -170q86 -59 86 -168v-23q0 -85 -66 -159t-207 -74z" />
    <glyph glyph-name="uni2089" unicode="&#x2089;" 
d="M305 469q43 0 72 37v26q0 104 -66 105h-6q-27 -1 -46 -21t-19 -55v-20q0 -72 61 -72h4zM76 -16v180q170 2 235 80q23 29 39 75q-43 -25 -100 -24q-98 0 -157 69q-58 69 -58 183v10q1 119 69 187t202 69q134 0 205 -82t71 -217v-14q0 -217 -113 -371q-61 -81 -155 -113
t-238 -32z" />
    <glyph glyph-name="uni208A" unicode="&#x208a;" 
d="M217 666h180v-177h176v-180h-176v-176h-180v176h-176v180h176v177z" />
    <glyph glyph-name="uni208B" unicode="&#x208b;" 
d="M41 309v180h532v-180h-532z" />
    <glyph glyph-name="uni208C" unicode="&#x208c;" 
d="M41 197v178h532v-178h-532zM41 424v178h532v-178h-532z" />
    <glyph glyph-name="uni208D" unicode="&#x208d;" horiz-adv-x="397" 
d="M37 389v21q0 248 123 389h209q-129 -193 -129 -389v-21q0 -197 129 -389h-209q-123 139 -123 389z" />
    <glyph glyph-name="uni208E" unicode="&#x208e;" horiz-adv-x="397" 
d="M356 410v-21q0 -254 -120 -389h-209q127 184 127 389v21q0 205 -127 389h209q120 -139 120 -389z" />
    <glyph glyph-name="Euro" unicode="&#x20ac;" horiz-adv-x="1228" 
d="M66 655v242h137q8 379 133 553q126 174 364 174t341 -128t104 -402v-70h-236q0 190 -43 274t-143 84h-16q-211 0 -224 -485h369l-119 -242h-248q18 -440 222 -440h16q186 0 186 297h236v-18q-1 -266 -105 -394t-338 -127q-234 0 -359 164q-124 164 -138 518h-139z" />
    <glyph glyph-name="ruble" unicode="&#x20bd;" horiz-adv-x="1228" 
d="M469 836h158q102 0 175 54t72 195v23q0 141 -72 196q-73 54 -175 54h-158v-522zM469 596v-92h395v-240h-395v-264h-274v264h-156v240h156v92h-156v240h156v761h421q537 0 537 -479v-41q0 -481 -537 -481h-147z" />
    <glyph glyph-name="numero" unicode="&#x2116;" horiz-adv-x="2273" 
d="M1686 1171q0 -197 143 -196q141 0 141 196v56q0 195 -141 194q-143 0 -143 -194v-56zM1470 391v203h717v-203h-717zM2204 1171q0 -181 -94 -289t-282 -108q-187 0 -282 108q-94 108 -94 289v56q0 182 94 290q94 107 282 107t281 -108q94 -108 95 -289v-56zM1257 1597
v-1597h-290l-590 1102l8 -338v-764h-260v1597h291l590 -1101l-9 338v763h260z" />
    <glyph glyph-name="published" unicode="&#x2117;" horiz-adv-x="1884" 
d="M819 831h168q133 0 133 127v15q0 127 -133 127h-168v-269zM1362 954q0 -298 -326 -303h-217v-334h-241v963h458q227 0 297 -153q29 -62 29 -150v-23zM223 799q0 -299 210 -509t509 -210t509 210t210 509t-210 509t-509 210t-509 -210t-210 -509zM117 799q1 341 243 583
t582 242t583 -243t243 -583t-244 -582q-242 -243 -582 -243t-583 243q-242 243 -242 583z" />
    <glyph glyph-name="servicemark" unicode="&#x2120;" horiz-adv-x="1122" 
d="M606 1085h-117v553h177l94 -354l92 354h176v-553h-117v230l4 127l-94 -357h-125l-94 357l4 -127v-230zM35 1477v8q0 78 50 124t144 46q197 0 197 -199v-16h-117q0 59 -17 85t-61 25h-6q-33 0 -52 -16t-19 -43v-4q0 -31 22 -47t94 -26q160 -23 160 -163v-10
q0 -82 -51 -128t-150 -46q-201 0 -200 203v6h116q0 -106 84 -107h7q76 0 75 68v4q-1 31 -23 49t-98 27q-76 10 -115 46q-40 36 -40 114z" />
    <glyph glyph-name="trademark" unicode="&#x2122;" horiz-adv-x="1122" 
d="M606 1085h-117v553h177l94 -354l92 354h176v-553h-117v230l4 127l-94 -357h-125l-94 357l4 -127v-230zM291 1536v-451h-117v451h-139v102h395v-102h-139z" />
    <glyph glyph-name="uni2153" unicode="&#x2153;" horiz-adv-x="1638" 
d="M588 799h-527v176h162v373l-98 -66l-102 145l249 168h156v-620h160v-176zM1335 162q64 0 66 80v10q0 66 -66 65h-106v181h104q61 0 62 65v12q1 27 -17 43t-43 17h-10q-57 0 -57 -103h-205v19q0 262 268 262q141 0 205 -68t63 -147v-20q0 -111 -83 -170q88 -59 88 -170
v-21q0 -84 -66 -159q-66 -74 -204 -74t-208 66t-69 190v16h205q0 -94 63 -94h10zM336 0h-213l1180 1597h213z" />
    <glyph glyph-name="uni2154" unicode="&#x2154;" horiz-adv-x="1638" 
d="M575 975v-176h-536v129l291 325q41 45 41 84v11q0 86 -60 86h-10q-57 0 -57 -103h-205v19q0 262 268 262q141 0 205 -69t63 -157v-22q0 -68 -20 -111t-68 -96l-165 -182h253zM1335 162q64 0 66 80v10q0 66 -66 65h-106v181h104q61 0 62 65v12q1 27 -17 43t-43 17h-10
q-57 0 -57 -103h-205v19q0 262 268 262q141 0 205 -68t63 -147v-20q0 -111 -83 -170q88 -59 88 -170v-21q0 -84 -66 -159q-66 -74 -204 -74t-208 66t-69 190v16h205q0 -94 63 -94h10zM336 0h-213l1180 1597h213z" />
    <glyph glyph-name="uni2155" unicode="&#x2155;" horiz-adv-x="1638" 
d="M588 799h-527v176h162v373l-98 -66l-102 145l249 168h156v-620h160v-176zM1057 256h205q0 -94 63 -94h10q66 0 66 88v10q0 86 -76 86h-6q-51 0 -80 -41l-176 60l18 434h512v-178h-340l-6 -111q51 14 94 14q129 0 196 -70t67 -190v-20q0 -121 -69 -191q-69 -69 -204 -69
t-205 66t-69 190v16zM336 0h-213l1180 1597h213z" />
    <glyph glyph-name="uni2156" unicode="&#x2156;" horiz-adv-x="1638" 
d="M575 975v-176h-536v129l291 325q41 45 41 84v11q0 86 -60 86h-10q-57 0 -57 -103h-205v19q0 262 268 262q141 0 205 -69t63 -157v-22q0 -68 -20 -111t-68 -96l-165 -182h253zM1057 256h205q0 -94 63 -94h10q66 0 66 88v10q0 86 -76 86h-6q-51 0 -80 -41l-176 60l18 434
h512v-178h-340l-6 -111q51 14 94 14q129 0 196 -70t67 -190v-20q0 -121 -69 -191q-69 -69 -204 -69t-205 66t-69 190v16zM336 0h-213l1180 1597h213z" />
    <glyph glyph-name="uni2157" unicode="&#x2157;" horiz-adv-x="1638" 
d="M238 1055q0 -94 63 -94h10q29 0 47 20t19 59v11q0 66 -66 65h-106v180h104q61 0 62 66v12q1 27 -17 43t-43 17h-10q-57 0 -57 -103h-205v19q0 262 268 262q141 0 205 -68t63 -147v-21q0 -111 -83 -170q88 -59 88 -170v-20q0 -84 -66 -159t-204 -75t-208 66t-69 190v17
h205zM1057 256h205q0 -94 63 -94h10q66 0 66 88v10q0 86 -76 86h-6q-51 0 -80 -41l-176 60l18 434h512v-178h-340l-6 -111q51 14 94 14q129 0 196 -70t67 -190v-20q0 -121 -69 -191q-69 -69 -204 -69t-205 66t-69 190v16zM336 0h-213l1180 1597h213z" />
    <glyph glyph-name="uni2158" unicode="&#x2158;" horiz-adv-x="1638" 
d="M317 1135v102l2 37l-88 -144l37 5h49zM522 799h-205v155h-292v146l305 497h192v-462h66v-181h-66v-155zM1057 256h205q0 -94 63 -94h10q66 0 66 88v10q0 86 -76 86h-6q-51 0 -80 -41l-176 60l18 434h512v-178h-340l-6 -111q51 14 94 14q129 0 196 -70t67 -190v-20
q0 -121 -69 -191q-69 -69 -204 -69t-205 66t-69 190v16zM336 0h-213l1180 1597h213z" />
    <glyph glyph-name="uni2159" unicode="&#x2159;" horiz-adv-x="1638" 
d="M1331 328q-45 0 -69 -37v-25q0 -104 65 -104h6q27 0 46 20t20 54v22q0 70 -62 70h-6zM588 799h-527v176h162v373l-98 -66l-102 145l249 168h156v-620h160v-176zM1561 813v-180q-237 0 -275 -154q45 25 100 25q100 0 158 -69t60 -183v-10q0 -119 -69 -189
q-69 -69 -204 -69t-205 82t-69 217v16q0 221 112 369q61 84 155 114t237 31zM336 0h-213l1180 1597h213z" />
    <glyph glyph-name="uni215A" unicode="&#x215a;" horiz-adv-x="1638" 
d="M1331 328q-45 0 -69 -37v-25q0 -104 65 -104h6q27 0 46 20t20 54v22q0 70 -62 70h-6zM33 1055h205q0 -94 63 -94h10q66 0 66 88v10q0 86 -76 86h-6q-51 0 -80 -41l-176 59l18 434h512v-178h-340l-6 -110q49 14 94 14q129 0 196 -71t67 -189v-21q0 -120 -69 -190t-204 -70
t-205 66t-69 190v17zM1561 813v-180q-237 0 -275 -154q45 25 100 25q100 0 158 -69t60 -183v-10q0 -119 -69 -189q-69 -69 -204 -69t-205 82t-69 217v16q0 221 112 369q61 84 155 114t237 31zM336 0h-213l1180 1597h213z" />
    <glyph glyph-name="uni215B" unicode="&#x215b;" horiz-adv-x="1638" 
d="M1335 635h-10q-25 1 -42 -17t-17 -45v-10q0 -66 63 -65h4q61 0 62 65v10q1 27 -17 45t-43 17zM1335 162q64 0 66 80v10q0 66 -66 65h-10q-63 0 -63 -65v-10q0 -40 18 -60t45 -20h10zM588 799h-527v176h162v373l-98 -66l-102 145l249 168h156v-620h160v-176zM336 0h-213
l1180 1597h213zM1331 -16q-141 0 -208 74t-66 159v23q0 111 88 170q-82 57 -82 168v20q0 80 63 148q62 68 204 67q142 0 206 -68t63 -147v-20q0 -111 -81 -170q86 -59 86 -168v-23q0 -85 -66 -159t-207 -74z" />
    <glyph glyph-name="uni215C" unicode="&#x215c;" horiz-adv-x="1638" 
d="M1335 635h-10q-25 1 -42 -17t-17 -45v-10q0 -66 63 -65h4q61 0 62 65v10q1 27 -17 45t-43 17zM1335 162q64 0 66 80v10q0 66 -66 65h-10q-63 0 -63 -65v-10q0 -40 18 -60t45 -20h10zM238 1055q0 -94 63 -94h10q29 0 47 20t19 59v11q0 66 -66 65h-106v180h104q61 0 62 66
v12q1 27 -17 43t-43 17h-10q-57 0 -57 -103h-205v19q0 262 268 262q141 0 205 -68t63 -147v-21q0 -111 -83 -170q88 -59 88 -170v-20q0 -84 -66 -159t-204 -75t-208 66t-69 190v17h205zM336 0h-213l1180 1597h213zM1331 -16q-141 0 -208 74t-66 159v23q0 111 88 170
q-82 57 -82 168v20q0 80 63 148q62 68 204 67q142 0 206 -68t63 -147v-20q0 -111 -81 -170q86 -59 86 -168v-23q0 -85 -66 -159t-207 -74z" />
    <glyph glyph-name="uni215D" unicode="&#x215d;" horiz-adv-x="1638" 
d="M1335 635h-10q-25 1 -42 -17t-17 -45v-10q0 -66 63 -65h4q61 0 62 65v10q1 27 -17 45t-43 17zM1335 162q64 0 66 80v10q0 66 -66 65h-10q-63 0 -63 -65v-10q0 -40 18 -60t45 -20h10zM33 1055h205q0 -94 63 -94h10q66 0 66 88v10q0 86 -76 86h-6q-51 0 -80 -41l-176 59
l18 434h512v-178h-340l-6 -110q49 14 94 14q129 0 196 -71t67 -189v-21q0 -120 -69 -190t-204 -70t-205 66t-69 190v17zM336 0h-213l1180 1597h213zM1331 -16q-141 0 -208 74t-66 159v23q0 111 88 170q-82 57 -82 168v20q0 80 63 148q62 68 204 67q142 0 206 -68t63 -147
v-20q0 -111 -81 -170q86 -59 86 -168v-23q0 -85 -66 -159t-207 -74z" />
    <glyph glyph-name="uni215E" unicode="&#x215e;" horiz-adv-x="1638" 
d="M1335 635h-10q-25 1 -42 -17t-17 -45v-10q0 -66 63 -65h4q61 0 62 65v10q1 27 -17 45t-43 17zM1335 162q64 0 66 80v10q0 66 -66 65h-10q-63 0 -63 -65v-10q0 -40 18 -60t45 -20h10zM27 1311v286h559v-127l-273 -671h-219l264 622l-90 -2h-63v-108h-178zM336 0h-213
l1180 1597h213zM1331 -16q-141 0 -208 74t-66 159v23q0 111 88 170q-82 57 -82 168v20q0 80 63 148q62 68 204 67q142 0 206 -68t63 -147v-20q0 -111 -81 -170q86 -59 86 -168v-23q0 -85 -66 -159t-207 -74z" />
    <glyph glyph-name="uni215F" unicode="&#x215f;" horiz-adv-x="1024" 
d="M588 799h-527v176h162v373l-98 -66l-102 145l249 168h156v-620h160v-176zM336 0h-213l1180 1597h213z" />
    <glyph glyph-name="arrowleft" unicode="&#x2190;" horiz-adv-x="1884" 
d="M1741 920v-242h-1163l677 -678h-340l-798 799l798 798h340l-677 -677h1163z" />
    <glyph glyph-name="arrowup" unicode="&#x2191;" horiz-adv-x="1884" 
d="M1063 0h-242v1163l-678 -678v340l799 799l799 -799v-340l-678 678v-1163z" />
    <glyph glyph-name="arrowright" unicode="&#x2192;" horiz-adv-x="1884" 
d="M143 678v242h1164l-678 677h340l798 -798l-798 -799h-340l678 678h-1164z" />
    <glyph glyph-name="arrowdown" unicode="&#x2193;" horiz-adv-x="1884" 
d="M821 1597h242v-1163l678 678v-340l-799 -799l-799 799v340l678 -678v1163z" />
    <glyph glyph-name="uni2196" unicode="&#x2196;" horiz-adv-x="1884" 
d="M385 0h-242v1597h1598v-241h-1188l1214 -1213l-170 -170l-1212 1215v-1188z" />
    <glyph glyph-name="uni2197" unicode="&#x2197;" horiz-adv-x="1884" 
d="M143 1356v241h1598v-1597h-242v1188l-1212 -1215l-170 170l1214 1213h-1188z" />
    <glyph glyph-name="uni2198" unicode="&#x2198;" horiz-adv-x="1884" 
d="M143 0v242h1188l-1214 1212l170 170l1212 -1214v1187h242v-1597h-1598z" />
    <glyph glyph-name="uni2199" unicode="&#x2199;" horiz-adv-x="1884" 
d="M1741 242v-242h-1598v1597h242v-1187l1212 1214l170 -170l-1214 -1212h1188z" />
    <glyph glyph-name="minus" unicode="&#x2212;" horiz-adv-x="1228" 
d="M90 678v242h1049v-242h-1049z" />
    <glyph glyph-name="approxequal" unicode="&#x2248;" horiz-adv-x="1228" 
d="M373 1186q113 0 258 -70t217 -69q100 0 188 104l129 -129q-117 -182 -309 -182q-113 0 -258 68t-217 69q-100 0 -188 -105l-130 132q117 182 310 182zM373 750q113 0 258 -69t217 -69q100 0 188 105l129 -131q-117 -182 -309 -183q-113 0 -258 69t-217 69
q-102 0 -188 -103l-130 129q117 183 310 183z" />
    <glyph glyph-name="notequal" unicode="&#x2260;" horiz-adv-x="1228" 
d="M90 895v242h621l129 225h194l-129 -225h234v-242h-373l-111 -193h484v-241h-621l-129 -225h-194l129 225h-234v241h371l110 193h-481z" />
    <glyph glyph-name="equivalence" unicode="&#x2261;" horiz-adv-x="1228" 
d="M90 1114v240h1049v-240h-1049zM90 244v239h1049v-239h-1049zM90 678v242h1049v-242h-1049z" />
    <glyph glyph-name="lessequal" unicode="&#x2264;" horiz-adv-x="1228" 
d="M1139 352v-162l-1049 336v164zM1139 1143l-678 -205l678 -201v-266l-1049 338v262l1049 336v-264z" />
    <glyph glyph-name="greaterequal" unicode="&#x2265;" horiz-adv-x="1228" 
d="M90 190v162l1049 338v-164zM90 737l678 201l-678 205v264l1049 -336v-262l-1049 -338v266z" />
    <glyph glyph-name="squaremultiply" unicode="&#x22a0;" horiz-adv-x="1884" 
d="M639 326l-170 170l303 303l-303 303l170 170l303 -303l303 303l170 -170l-303 -303l303 -303l-170 -170l-303 303zM1503 1360h-1122v-1122h1122v1122zM1741 0h-1598v1597h1598v-1597z" />
    <glyph glyph-name="house" unicode="&#x2302;" horiz-adv-x="1740" 
d="M1597 0h-1454v922l727 696l727 -696v-922z" />
    <glyph glyph-name="blacksquare" unicode="&#x25a0;" horiz-adv-x="1884" 
d="M1741 0h-1598v1597h1598v-1597z" />
    <glyph glyph-name="blacksquare" unicode="&#xe740;" horiz-adv-x="1884" 
d="M1741 0h-1598v1597h1598v-1597z" />
    <glyph glyph-name="whitesquare" unicode="&#x25a1;" horiz-adv-x="1884" 
d="M1503 1360h-1122v-1122h1122v1122zM1741 0h-1598v1597h1598v-1597z" />
    <glyph glyph-name="blacksmallsquare" unicode="&#x25aa;" horiz-adv-x="1392" 
d="M1229 0h-1086v1085h1086v-1085z" />
    <glyph glyph-name="whitesmallsquare" unicode="&#x25ab;" horiz-adv-x="1392" 
d="M991 848h-610v-610h610v610zM143 1085h1086v-1085h-1086v1085z" />
    <glyph glyph-name="triagup" unicode="&#x25b2;" horiz-adv-x="1904" 
d="M1083 1624l695 -1624h-267l-559 1331l-559 -1331h-266l694 1624h262z" />
    <glyph glyph-name="triagrt" unicode="&#x25ba;" horiz-adv-x="1904" 
d="M1788 930v-262l-1624 -695v267l1331 559l-1331 559v266z" />
    <glyph glyph-name="triagdn" unicode="&#x25bc;" horiz-adv-x="1904" 
d="M821 -27l-694 1624h266l559 -1333l559 1333h267l-695 -1624h-262z" />
    <glyph glyph-name="triaglf" unicode="&#x25c4;" horiz-adv-x="1904" 
d="M117 930l1624 694v-266l-1333 -559l1333 -559v-267l-1624 695v262z" />
    <glyph glyph-name="whitecircle" unicode="&#x25cb;" horiz-adv-x="1884" 
d="M354 799q0 -244 172 -416t416 -172t416 172t172 416q0 243 -172 415t-416 172t-416 -172t-172 -415zM117 799q1 341 243 583t582 242t583 -243t243 -583t-244 -582q-242 -243 -582 -243t-583 243q-242 243 -242 583z" />
    <glyph glyph-name="whitecircle" unicode="&#x25ef;" horiz-adv-x="1884" 
d="M354 799q0 -244 172 -416t416 -172t416 172t172 416q0 243 -172 415t-416 172t-416 -172t-172 -415zM117 799q1 341 243 583t582 242t583 -243t243 -583t-244 -582q-242 -243 -582 -243t-583 243q-242 243 -242 583z" />
    <glyph glyph-name="blackcircle" unicode="&#x25cf;" horiz-adv-x="1884" 
d="M117 799q1 341 243 583t582 242t583 -243t243 -583t-244 -582q-242 -243 -582 -243t-583 243q-242 243 -242 583z" />
    <glyph glyph-name="uni25E2" unicode="&#x25e2;" horiz-adv-x="1904" 
d="M1837 92l-184 -184l-1639 655l189 189l1337 -551l-549 1341l189 187z" />
    <glyph glyph-name="uni25E3" unicode="&#x25e3;" horiz-adv-x="1904" 
d="M252 -92l-184 184l657 1637l188 -187l-551 -1341l1340 551l188 -189z" />
    <glyph glyph-name="uni25E4" unicode="&#x25e4;" horiz-adv-x="1904" 
d="M68 1509l184 185l1638 -658l-188 -188l-1340 549l551 -1338l-188 -188z" />
    <glyph glyph-name="uni25E5" unicode="&#x25e5;" horiz-adv-x="1904" 
d="M1837 1509l-657 -1638l-189 188l549 1338l-1337 -549l-189 188l1639 658z" />
    <glyph glyph-name="uni2605" unicode="&#x2605;" horiz-adv-x="1802" 
d="M901 369l-532 -389l202 628l-532 387h659l203 627l203 -627h659l-532 -387l203 -628z" />
    <glyph glyph-name="ballotboxwithx" unicode="&#x2612;" horiz-adv-x="1392" 
d="M903 760v-170l-47 -47l47 -47v-170h-170l-47 47l-47 -47h-170v170l47 47l-47 47v170h170l47 -47l47 47h170zM991 848h-610v-610h610v610zM143 1085h1086v-1085h-1086v1085z" />
    <glyph glyph-name="uni263C" unicode="&#x263c;" horiz-adv-x="1966" 
d="M209 1059q25 94 136 94q52 0 95 -43q84 -84 195 -84l-232 352l353 -231q-53 53 -54 135l17 127q0 49 -25 80t-49 35l-24 6q29 16 73 16t84 -42q41 -42 41 -103t31 -123t47 -74l86 414l86 -414q0 80 59 135q18 16 62 46t66 63q23 33 6 88q-6 17 -19 35q45 -12 70 -48
t25 -88t-44 -96q-84 -84 -84 -194l353 231l-232 -352q53 53 135 53l127 -16q49 1 80 25t35 49l6 24q16 -29 16 -73t-41 -84q-41 -42 -103 -42t-124 -30q-62 -31 -73 -47l413 -86l-413 -86q80 0 135 -60q16 -18 46 -61t53 -61q24 -17 64 -17t68 25q-12 -45 -48 -70t-88 -25
t-95 43q-84 84 -195 84l232 -352l-353 232q53 -53 54 -136l-17 -127q0 -48 25 -78t49 -36l24 -6q-29 -16 -73 -16t-84 41q-41 41 -41 103t-31 124t-47 73l-86 -414l-86 414q0 -80 -59 -135q-18 -16 -62 -46t-66 -62q-23 -32 -6 -89q5 -16 19 -34q-45 12 -70 48t-25 88t44 95
q84 84 84 195l-353 -232l232 352q-53 -53 -135 -53l-127 17q-49 0 -79 -25t-36 -49l-6 -25q-16 29 -16 73t41 85t103 41t124 31t73 47l-413 86l413 86q-80 0 -135 59q-16 18 -46 62t-53 60q-24 17 -62 17t-70 -24z" />
    <glyph glyph-name="uni263E" unicode="&#x263e;" horiz-adv-x="1966" 
d="M1278 1491q-274 0 -469 -203q-195 -204 -195 -490t195 -489t469 -203q102 0 197 31q-219 -158 -492 -157q-340 0 -580 240t-239 579q0 339 240 579t579 240q268 0 492 -158q-107 31 -197 31z" />
    <glyph glyph-name="spade" unicode="&#x2660;" horiz-adv-x="1843" 
d="M1737 682q-1 -148 -105 -251t-250 -103t-253 94q-105 94 -162 235l-6 -2q16 -209 54 -356t113 -299h-413q76 152 113 299q38 147 55 356l-6 2q-57 -141 -163 -235t-252 -94q-147 0 -251 103q-105 103 -105 251t88 254t241 206q152 100 286 238q133 139 199 238h4
q66 -98 198 -238q133 -139 286 -238q153 -100 241 -206t88 -254z" />
    <glyph glyph-name="club" unicode="&#x2663;" horiz-adv-x="1843" 
d="M462 328q-147 0 -251 103q-105 103 -105 259t100 259t257 104q82 0 172 -47l4 4q-78 117 -78 255q-1 137 103 245t258 108t257 -108t103 -246t-78 -254l4 -4q90 47 172 47q158 1 257 -103t99 -260t-104 -259t-250 -103t-253 94q-105 94 -162 235l-6 -2q16 -209 54 -356
t113 -299h-413q76 152 113 299q38 147 55 356l-6 2q-57 -141 -163 -235t-252 -94z" />
    <glyph glyph-name="heart" unicode="&#x2665;" horiz-adv-x="1843" 
d="M106 1196q0 184 106 303t284 119q176 0 273 -87t149 -235h8q51 146 148 234q98 88 274 88t282 -119t107 -303q0 -238 -336 -616q-150 -170 -285 -341t-192 -259h-4q-57 88 -193 259q-135 171 -285 341q-336 379 -336 616z" />
    <glyph glyph-name="diamond" unicode="&#x2666;" horiz-adv-x="1843" 
d="M1673 799q-217 -170 -415 -386t-334 -433h-4q-137 217 -335 433t-415 386q217 170 415 386t335 433h4q136 -217 334 -433t415 -386z" />
    <glyph glyph-name="uni267B" unicode="&#x267b;" horiz-adv-x="1966" 
d="M1651 1079l141 -239q20 -37 20 -90q2 -98 -77 -179q-80 -80 -152 -79l-237 411zM913 84h-276q-45 0 -90 27q-88 51 -118 163t9 164h475v-354zM410 1225l137 243q20 35 69 64q94 49 198 20t140 -92l-237 -411zM827 1597h396q49 -2 73 -5q24 -4 58 -26q33 -22 57 -65
l57 -100l88 49l-124 -340l-355 64l84 49l-147 256q-27 47 -74 77t-80 33l-33 6v2zM381 250h-4l-197 344q-22 44 -30 66q-24 72 22 145l57 100l-86 49l357 64l121 -340l-84 49q-143 -247 -159 -275t-18 -83t9 -86zM1393 84h-117v-100l-232 278l232 277v-101h297q53 0 102 27
t70 53l22 27l2 -4l-196 -342q-31 -45 -44 -61t-49 -36q-36 -18 -87 -18z" />
    <glyph glyph-name="uni267C" unicode="&#x267c;" horiz-adv-x="1966" 
d="M131 799q0 335 238 573q237 238 573 238t574 -238t238 -574t-238 -573t-574 -237t-574 238t-237 573zM1393 522h-230v78l-180 -215l180 -215v78h90q57 0 85 22t55 66l153 266l-2 2q-25 -33 -67 -57q-43 -25 -84 -25zM1563 834l-109 186l-237 -137l184 -320q57 -1 119 61
t59 140q0 41 -16 70zM467 377h2q-41 90 6 172l115 199l65 -39l-94 264l-276 -49l67 -39l-45 -78q-20 -33 -22 -65t4 -48t24 -51zM659 248h215v274h-368q-31 -41 -7 -128t91 -126q34 -20 69 -20zM807 1421v-2q98 -10 145 -90l115 -199l-66 -38l275 -50l96 265l-67 -39l-45 78
q-29 49 -61 62t-85 13h-307zM598 1321l-106 -188l237 -138l184 320q-27 49 -107 71t-155 -16q-37 -22 -53 -49z" />
    <glyph glyph-name="uni267D" unicode="&#x267d;" horiz-adv-x="1966" 
d="M201 799q0 -307 217 -525t524 -217q307 0 524 217q217 216 217 524t-217 525t-524 217t-524 -217t-217 -524zM123 799q-1 339 239 579t580 240t580 -240t240 -580t-240 -579t-580 -239t-580 239q-239 240 -239 580zM1253 248h-90v-78l-180 215l180 215v-78h230
q41 0 79 20t56 42l16 20l2 -2l-153 -266q-19 -31 -31 -46q-36 -42 -109 -42zM1454 1020l109 -186q16 -29 16 -70q2 -78 -59 -139t-119 -62l-184 320zM469 377h-2l-154 266q-18 35 -24 51t-4 48t22 65l45 78l-67 39l276 49l94 -264l-65 39l-115 -199q-20 -37 -22 -80t6 -68z
M874 248h-215q-35 0 -69 20q-68 39 -91 126q-24 87 7 128h368v-274zM807 1421h307q53 0 85 -13t61 -62l45 -78l67 39l-96 -265l-275 50l66 38l-115 199q-20 35 -57 57t-64 27l-24 6v2zM492 1133l106 188q16 27 53 49q74 37 155 15t107 -70l-184 -320z" />
    <glyph glyph-name="mediumwhitecircle" unicode="&#x26aa;" horiz-adv-x="1372" 
d="M354 543q0 -137 98 -235t234 -97q137 0 235 97q97 96 97 234t-97 235t-235 97t-234 -97q-98 -97 -98 -234zM117 543q0 237 167 403q166 166 402 166t403 -167t167 -403t-168 -402q-166 -167 -402 -167t-402 167t-167 403z" />
    <glyph glyph-name="mediumblackcircle" unicode="&#x26ab;" horiz-adv-x="1372" 
d="M117 543q0 237 167 403q166 166 402 166t403 -167t167 -403t-168 -402q-166 -167 -402 -167t-402 167t-167 403z" />
    <glyph glyph-name="anglebracketleft" unicode="&#x3008;" horiz-adv-x="716" 
d="M670 1720l-332 -983l332 -983h-277l-332 983l332 983h277z" />
    <glyph glyph-name="anglebracketright" unicode="&#x3009;" horiz-adv-x="716" 
d="M47 -246l332 983l-332 983h277l331 -983l-331 -983h-277z" />
    <glyph glyph-name="fi" unicode="&#xe38c;" horiz-adv-x="1333" 
d="M1223 1563v-289h-291v289h291zM944 0v1085h266v-1085h-266zM479 1255v-170h260v-233h-260v-852h-266v852h-166v233h166v201q0 379 379 379q115 0 168 -27v-221q-33 17 -114 17t-124 -38t-43 -141z" />
    <glyph glyph-name="fi" unicode="&#xfb01;" horiz-adv-x="1333" 
d="M1223 1563v-289h-291v289h291zM944 0v1085h266v-1085h-266zM479 1255v-170h260v-233h-260v-852h-266v852h-166v233h166v201q0 379 379 379q115 0 168 -27v-221q-33 17 -114 17t-124 -38t-43 -141z" />
    <glyph glyph-name="fl" unicode="&#xe38d;" horiz-adv-x="1333" 
d="M944 0v1638h266v-1638h-266zM479 1255v-170h260v-233h-260v-852h-266v852h-166v233h166v201q0 379 379 379q115 0 168 -27v-221q-33 17 -114 17t-124 -38t-43 -141z" />
    <glyph glyph-name="fl" unicode="&#xfb02;" horiz-adv-x="1333" 
d="M944 0v1638h266v-1638h-266zM479 1255v-170h260v-233h-260v-852h-266v852h-166v233h166v201q0 379 379 379q115 0 168 -27v-221q-33 17 -114 17t-124 -38t-43 -141z" />
    <glyph glyph-name="invertedbreve" unicode="&#xe411;" horiz-adv-x="1024" 
d="M512 1624q193 0 282 -105t85 -288h-197q0 186 -170 186t-170 -186h-197q-4 181 85 287t282 106z" />
    <glyph glyph-name="doublegrave" unicode="&#xe412;" horiz-adv-x="1024" 
d="M383 1597h240l149 -366h-215zM43 1597h240l186 -366h-215z" />
    <glyph glyph-name="caronSlovak" unicode="&#xe413;" horiz-adv-x="1024" 
d="M637 1638h174l-47 -407h-127v407z" />
    <glyph glyph-name="commaaccent" unicode="&#xe414;" horiz-adv-x="1232" 
d="M637 -96v-115q0 -127 -68 -186t-207 -60v101q135 0 166 84h-141v176h250z" />
    <glyph glyph-name="commaaccent" unicode="&#xf6c3;" horiz-adv-x="1232" 
d="M637 -96v-115q0 -127 -68 -186t-207 -60v101q135 0 166 84h-141v176h250z" />
    <glyph glyph-name="dotbelow" unicode="&#xe415;" horiz-adv-x="1232" 
d="M637 -127v-252h-250v252h250z" />
    <glyph glyph-name="altcedilla" unicode="&#xe416;" horiz-adv-x="1232" 
d="M500 -301q98 0 98 52t-104 52q-72 0 -105 -14v100q194 51 299 -23q61 -44 62 -130q0 -174 -234 -174q-137 0 -209 49l41 121q54 -33 152 -33z" />
    <glyph glyph-name="grave.cap" unicode="&#xe421;" horiz-adv-x="1024" 
d="M250 1946h280l115 -226h-266z" />
    <glyph glyph-name="acute.cap" unicode="&#xe422;" horiz-adv-x="1024" 
d="M494 1946h280l-129 -226h-266z" />
    <glyph glyph-name="circumflex.cap" unicode="&#xe423;" horiz-adv-x="1024" 
d="M381 1720h-246l244 226h266l244 -226h-246l-131 103z" />
    <glyph glyph-name="tilde.cap" unicode="&#xe424;" horiz-adv-x="1024" 
d="M719 1931h149q0 -117 -53 -171t-133 -54t-176 51t-129 51q-72 0 -72 -73h-149q0 117 53 171t133 54t176 -51t129 -51q72 -1 72 73z" />
    <glyph glyph-name="macron.cap" unicode="&#xe425;" horiz-adv-x="1024" 
d="M229 1747v172h566v-172h-566z" />
    <glyph glyph-name="breve.cap" unicode="&#xe426;" horiz-adv-x="1024" 
d="M512 1692q-350 0 -350 254h188q0 -100 162 -100t162 100h188q0 -254 -350 -254z" />
    <glyph glyph-name="invertedbreve.cap" unicode="&#xe427;" horiz-adv-x="1024" 
d="M512 1974q350 0 350 -254h-188q0 100 -162 100t-162 -100h-188q0 254 350 254z" />
    <glyph glyph-name="dotaccent.cap" unicode="&#xe428;" horiz-adv-x="1024" 
d="M631 1927v-188h-238v188h238z" />
    <glyph glyph-name="dieresis.cap" unicode="&#xe429;" horiz-adv-x="1024" 
d="M805 1927v-188h-240v188h240zM459 1927v-188h-240v188h240z" />
    <glyph glyph-name="ring.cap" unicode="&#xe42a;" horiz-adv-x="1024" 
d="M512 1870q-46 0 -76 -32t-30 -76t30 -76t76 -31q45 0 76 32q30 31 30 75t-30 76q-31 32 -76 32zM303 1762q-1 86 61 148t148 62t147 -61t61 -149t-60 -147q-62 -61 -148 -61t-148 60t-61 148z" />
    <glyph glyph-name="hungarumlaut.cap" unicode="&#xe42b;" horiz-adv-x="1024" 
d="M666 1946h254l-129 -226h-242zM338 1946h254l-117 -226h-242z" />
    <glyph glyph-name="doublegrave.cap" unicode="&#xe42c;" horiz-adv-x="1024" 
d="M104 1946h254l117 -226h-242zM432 1946h254l105 -226h-242z" />
    <glyph glyph-name="caron.cap" unicode="&#xe42d;" horiz-adv-x="1024" 
d="M135 1946h246l131 -105l131 105h246l-244 -226h-266z" />
    <glyph glyph-name="commaaccent.cap" unicode="&#xe42e;" horiz-adv-x="1024" 
d="M393 1720v62q0 197 250 196v-73q-115 0 -141 -62h129v-123h-238z" />
    <glyph glyph-name="exclamdown.cap" unicode="&#xe441;" horiz-adv-x="512" 
d="M111 1309v288h290v-288h-290zM422 0h-332l74 1155h184z" />
    <glyph glyph-name="questiondown.cap" unicode="&#xe444;" horiz-adv-x="991" 
d="M356 1309v288h291v-288h-291zM315 393q0 -79 39 -131t138 -51q99 0 141 81q41 81 41 255h270v-31q0 -266 -104 -404t-346 -138t-347 115q-104 116 -104 313t122 324q52 54 104 106q125 126 141 323h184q14 -201 -87 -372q-42 -69 -85 -128t-75 -121t-32 -141z" />
    <glyph glyph-name="guilsinglleft.cap" unicode="&#xe451;" horiz-adv-x="641" 
d="M539 1231v-240l-250 -192l250 -193v-239l-437 305v254z" />
    <glyph glyph-name="guilsinglright.cap" unicode="&#xe452;" horiz-adv-x="641" 
d="M102 991v240l437 -305v-254l-437 -305v239l250 193z" />
    <glyph glyph-name="guillemotleft.cap" unicode="&#xe453;" horiz-adv-x="1126" 
d="M1024 1231v-240l-250 -192l250 -193v-239l-434 305v254zM539 1231v-240l-250 -192l250 -193v-239l-437 305v254z" />
    <glyph glyph-name="guillemotright.cap" unicode="&#xe454;" horiz-adv-x="1126" 
d="M590 991v240l434 -305v-254l-434 -305v239l248 193zM102 991v240l437 -305v-254l-437 -305v239l250 193z" />
    <glyph glyph-name="slash.cap" unicode="&#xe461;" horiz-adv-x="743" 
d="M305 0h-262l393 1597h262z" />
    <glyph glyph-name="backslash.cap" unicode="&#xe462;" horiz-adv-x="743" 
d="M43 1597h262l393 -1597h-262z" />
    <glyph glyph-name="bar.cap" unicode="&#xe463;" horiz-adv-x="497" 
d="M117 0v1597h262v-1597h-262z" />
    <glyph glyph-name="doublebar.cap" unicode="&#xe464;" horiz-adv-x="856" 
d="M477 0v1597h260v-1597h-260zM117 0v1597h262v-1597h-262z" />
    <glyph glyph-name="brokenbar.cap" unicode="&#xe465;" horiz-adv-x="497" 
d="M117 0v743h262v-743h-262zM117 854v743h262v-743h-262z" />
    <glyph glyph-name="bullet.cap" unicode="&#xe466;" horiz-adv-x="880" 
d="M750 1108v-619h-619v619h619z" />
    <glyph glyph-name="onethirdemdash" unicode="&#xe471;" horiz-adv-x="681" 
d="M600 600h-518v234h518v-234z" />
    <glyph glyph-name="threequarteremdash" unicode="&#xe472;" horiz-adv-x="1536" 
d="M82 600v234h1372v-234h-1372z" />
    <glyph glyph-name="periodcentered.cap" unicode="&#xe481;" horiz-adv-x="512" 
d="M401 944v-291h-290v291h290z" />
    <glyph glyph-name="hyphen.cap" unicode="&#xe482;" horiz-adv-x="655" 
d="M82 682v233h543v-233h-543z" />
    <glyph glyph-name="onethirdemdash.cap" unicode="&#xe483;" horiz-adv-x="681" 
d="M600 682h-512v233h512v-233z" />
    <glyph glyph-name="endash.cap" unicode="&#xe484;" horiz-adv-x="1024" 
d="M82 682v233h860v-233h-860z" />
    <glyph glyph-name="threequarteremdash.cap" unicode="&#xe485;" horiz-adv-x="1536" 
d="M82 682v233h1372v-233h-1372z" />
    <glyph glyph-name="emdash.cap" unicode="&#xe486;" horiz-adv-x="2048" 
d="M82 682v233h1884v-233h-1884z" />
    <glyph glyph-name="figuredash.cap" unicode="&#xe487;" horiz-adv-x="1228" 
d="M82 682v233h1065v-233h-1065z" />
    <glyph glyph-name="uni2015.cap" unicode="&#xe488;" horiz-adv-x="2457" 
d="M82 682v233h2294v-233h-2294z" />
    <glyph glyph-name="parenleft.cap" unicode="&#xe491;" horiz-adv-x="716" 
d="M100 778v41q0 459 248 778h279q-258 -373 -258 -778v-41q0 -406 258 -778h-279q-248 319 -248 778z" />
    <glyph glyph-name="parenright.cap" unicode="&#xe492;" horiz-adv-x="716" 
d="M616 819v-41q0 -463 -247 -778h-279q258 373 258 778v41q0 406 -258 778h279q247 -315 247 -778z" />
    <glyph glyph-name="bracketleft.cap" unicode="&#xe493;" horiz-adv-x="716" 
d="M125 1597h520v-235h-254v-1126h254v-236h-520v1597z" />
    <glyph glyph-name="bracketright.cap" unicode="&#xe494;" horiz-adv-x="716" 
d="M594 0h-520v236h252v1126h-252v235h520v-1597z" />
    <glyph glyph-name="braceleft.cap" unicode="&#xe495;" horiz-adv-x="716" 
d="M645 1597v-235q-82 0 -124 -38t-44 -128v-168q0 -164 -121 -229q121 -68 121 -230v-147q0 -100 41 -143t127 -43v-236h-51q-385 0 -385 340v170q0 94 -38 132t-122 38v238q84 0 122 38t38 131v170q0 340 385 340h51z" />
    <glyph glyph-name="braceright.cap" unicode="&#xe496;" horiz-adv-x="716" 
d="M74 1362v235h49q385 0 385 -340v-170q0 -94 38 -132t122 -37v-238q-84 0 -122 -38t-38 -132v-170q0 -340 -385 -340h-49v236q84 0 125 43t41 143v147q0 162 118 230q-119 63 -118 229v148q0 100 -41 143t-125 43z" />
    <glyph glyph-name="anglebracketleft.cap" unicode="&#xe497;" horiz-adv-x="716" 
d="M623 1597l-279 -798l279 -799h-277l-278 799l278 798h277z" />
    <glyph glyph-name="anglebracketright.cap" unicode="&#xe498;" horiz-adv-x="716" 
d="M373 799l-279 798h277l278 -798l-278 -799h-277z" />
    <glyph glyph-name="lowline" unicode="&#xe511;" horiz-adv-x="655" 
d="M90 0v233h475v-233h-475z" />
    <glyph glyph-name="underscoremonospace" unicode="&#xe512;" horiz-adv-x="1228" 
d="M90 -346v233h1049v-233h-1049z" />
    <glyph glyph-name="underscoremonospace" unicode="&#xff3f;" horiz-adv-x="1228" 
d="M90 -346v233h1049v-233h-1049z" />
    <glyph glyph-name="at.cap" unicode="&#xe513;" horiz-adv-x="2009" 
d="M971 1106q-103 0 -155 -71t-52 -195v-62q0 -126 51 -196t156 -70q131 0 205 119v356q-74 119 -205 119zM1044 -49h13q377 0 674 219l104 -141q-330 -260 -779 -260t-723 262q-273 262 -274 727v82q-1 465 271 727t710 262q385 0 638 -193q128 -96 201 -256t73 -366v-62
q0 -360 -155 -493t-402 -131h-176l-23 129q-98 -156 -290 -156t-292 132q-98 132 -98 345v62q0 213 98 345t292 132t290 -158l23 131h208l-16 -286v-498q190 8 270 101t80 345v62q1 280 -147 434q-188 196 -567 199h-13q-356 0 -573 -210t-217 -597v-82q0 -391 218 -599
t582 -208z" />
    <glyph glyph-name="zero.inf" unicode="&#xe571;" 
d="M371 164q1 29 -17 45t-45 16h-4q-29 0 -46 -16t-17 -45v-350q0 -27 17 -44t46 -18h4q27 0 44 18t18 44v350zM575 -186q-1 -106 -71 -173t-197 -67t-197 67t-71 173v350q0 106 71 173q72 67 198 67t197 -68q71 -66 70 -172v-350z" />
    <glyph glyph-name="one.inf" unicode="&#xe572;" 
d="M588 -410h-527v177h162v372l-98 -65l-102 145l249 168h156v-620h160v-177z" />
    <glyph glyph-name="two.inf" unicode="&#xe573;" 
d="M575 -233v-177h-536v129l291 326q41 45 41 84v10q0 86 -60 86h-10q-57 0 -57 -102h-205v18q0 262 268 262q141 0 205 -68q63 -69 63 -157v-22q0 -68 -20 -111t-68 -96l-165 -182h253z" />
    <glyph glyph-name="three.inf" unicode="&#xe574;" 
d="M238 -154q0 -94 63 -94h10q29 0 47 20t19 60v10q0 66 -66 66h-106v180h104q61 0 62 66v12q1 27 -17 43t-43 16h-10q-57 0 -57 -102h-205v18q0 262 268 262q141 0 205 -67q63 -68 63 -148v-20q0 -113 -83 -168q88 -59 88 -172v-21q0 -85 -66 -159t-204 -74t-208 66
t-69 190v16h205z" />
    <glyph glyph-name="four.inf" unicode="&#xe575;" 
d="M317 -74v103l2 37l-88 -144l37 4h49zM522 -410h-205v156h-292v145l305 498h192v-463h66v-180h-66v-156z" />
    <glyph glyph-name="five.inf" unicode="&#xe576;" 
d="M33 -154h205q0 -94 63 -94h10q66 0 66 88v10q0 86 -76 87h-6q-51 0 -80 -41l-176 59l18 434h512v-178h-340l-6 -111q51 14 94 15q129 0 196 -71t67 -189v-21q0 -120 -69 -190t-204 -70t-205 66t-69 190v16z" />
    <glyph glyph-name="six.inf" unicode="&#xe577;" 
d="M307 -82q-45 0 -69 -37v-24q0 -104 65 -105h6q27 0 46 20t20 54v22q0 70 -62 70h-6zM537 403v-180q-237 0 -275 -153q45 25 100 24q100 0 159 -68q58 -69 59 -184v-10q0 -118 -69 -188t-204 -70t-205 82t-69 217v16q0 221 112 369q61 84 155 114t237 31z" />
    <glyph glyph-name="seven.inf" unicode="&#xe578;" 
d="M27 102v287h559v-127l-273 -672h-219l264 623l-90 -2h-63v-109h-178z" />
    <glyph glyph-name="eight.inf" unicode="&#xe579;" 
d="M311 225h-10q-25 0 -42 -17t-17 -44v-10q0 -66 63 -66h4q61 0 62 66v10q1 27 -17 44t-43 17zM301 -92q-63 0 -63 -66v-10q0 -39 18 -59t45 -21h10q29 0 47 20t19 60v10q0 66 -66 66h-10zM307 -426q-141 0 -208 75t-66 158v23q0 111 88 170q-82 57 -82 168v20q0 80 63 148
q62 68 204 68t206 -68q63 -68 63 -148v-20q0 -113 -81 -168q86 -59 86 -170v-23q0 -85 -66 -159t-207 -74z" />
    <glyph glyph-name="nine.inf" unicode="&#xe57a;" 
d="M305 59q43 0 72 37v27q0 104 -66 104h-6q-27 0 -46 -20t-19 -55v-21q0 -72 61 -72h4zM76 -426v180q170 2 235 80q20 27 39 76q-49 -25 -100 -25q-98 0 -157 69q-58 69 -58 183v10q0 119 68 188q69 69 203 69t205 -82t71 -218v-14q0 -217 -113 -371q-61 -81 -155 -113
t-238 -32z" />
    <glyph glyph-name="plus.inf" unicode="&#xe57b;" 
d="M217 256h180v-176h176v-180h-176v-176h-180v176h-176v180h176v176z" />
    <glyph glyph-name="minus.inf" unicode="&#xe57c;" 
d="M41 -100v180h532v-180h-532z" />
    <glyph glyph-name="equal.inf" unicode="&#xe57d;" 
d="M41 -213v178h532v-178h-532zM41 14v179h532v-179h-532z" />
    <glyph glyph-name="parenleft.inf" unicode="&#xe57e;" horiz-adv-x="397" 
d="M37 -20v20q0 248 123 389h209q-129 -195 -129 -389v-20q0 -195 129 -390h-209q-123 140 -123 390z" />
    <glyph glyph-name="parenright.inf" unicode="&#xe57f;" horiz-adv-x="397" 
d="M356 0v-20q0 -254 -120 -390h-209q127 184 127 390v20q0 205 -127 389h209q120 -139 120 -389z" />
    <glyph glyph-name="Anocross" unicode="&#xe731;" horiz-adv-x="1292" 
d="M457 1606h379l419 -1606h-294l-314 1292l-313 -1292h-297z" />
    <glyph glyph-name="idotaccent" unicode="&#xe785;" horiz-adv-x="512" 
d="M401 1563v-289h-290v289h290zM123 0v1085h266v-1085h-266z" />
    <glyph glyph-name="interrobangdown" unicode="&#xe935;" horiz-adv-x="991" 
d="M315 -43q0 -109 99 -143l10 419q-109 -167 -109 -276zM346 797v288h291v-288h-291zM944 123v-33q0 -258 -104 -392t-344 -134t-346 108t-107 273q0 202 123 325q51 50 104 98q129 116 140 275h149l16 -827q129 51 130 307h239z" />
    <glyph glyph-name="interrobangdown.cap" unicode="&#xe99b;" horiz-adv-x="991" 
d="M301 420q0 -164 113 -199l10 500q-10 -20 -55 -95q-68 -113 -68 -206zM336 1309v288h291v-288h-291zM944 547v-31q0 -266 -104 -404t-346 -138t-347 115q-104 116 -104 313t122 324q52 54 104 106q127 128 141 323h149l19 -930q123 49 122 322h244z" />
    <glyph glyph-name="registered.cap" unicode="&#xe99c;" horiz-adv-x="1884" 
d="M793 831h168q133 0 133 127v15q0 127 -133 127h-168v-269zM793 651v-334h-240v963h459q137 0 230 -68t93 -235v-23q0 -201 -147 -268l147 -369h-254l-108 334h-180zM223 799q0 -299 210 -509t509 -210t509 210t210 509t-210 509t-509 210t-509 -210t-210 -509zM117 799
q1 341 243 583t582 242t583 -243t243 -583t-244 -582q-242 -243 -582 -243t-583 243q-242 243 -242 583z" />
    <glyph glyph-name="period.T" unicode="&#xf182;" 
d="M453 289v-289h-291v289h291z" />
    <glyph glyph-name="comma.T" unicode="&#xf183;" 
d="M453 289v-228q0 -338 -314 -337v139q145 0 170 137h-147v289h291z" />
    <glyph glyph-name="colon.T" unicode="&#xf184;" 
d="M453 289v-289h-291v289h291zM453 944v-291h-291v291h291z" />
    <glyph glyph-name="semicolon.T" unicode="&#xf185;" 
d="M453 944v-291h-291v291h291zM453 289v-228q0 -338 -314 -337v139q145 0 170 137h-147v289h291z" />
    <glyph glyph-name="onesixteenth" unicode="&#xf215;" horiz-adv-x="2252" 
d="M1946 328q-45 0 -70 -37v-25q0 -104 66 -104h6q27 0 46 20t19 54v22q0 70 -61 70h-6zM1612 0h-527v176h162v373l-98 -66l-102 146l249 168h156v-621h160v-176zM588 799h-527v176h162v373l-98 -66l-102 145l249 168h156v-620h160v-176zM2175 813v-180q-240 0 -274 -154
q45 25 100 25q101 0 159 -69t58 -183v-10q0 -119 -69 -189q-69 -69 -203 -69t-205 82q-70 82 -70 217v16q0 221 113 369q60 84 154 114t237 31zM336 0h-213l1180 1597h213z" />
    <glyph glyph-name="threesixteenths" unicode="&#xf216;" horiz-adv-x="2252" 
d="M1946 328q-45 0 -70 -37v-25q0 -104 66 -104h6q27 0 46 20t19 54v22q0 70 -61 70h-6zM1612 0h-527v176h162v373l-98 -66l-102 146l249 168h156v-621h160v-176zM238 1055q0 -94 63 -94h10q29 0 47 20t19 59v11q0 66 -66 65h-106v180h104q61 0 62 66v12q1 27 -17 43t-43 17
h-10q-57 0 -57 -103h-205v19q0 262 268 262q141 0 205 -68t63 -147v-21q0 -111 -83 -170q88 -59 88 -170v-20q0 -84 -66 -159t-204 -75t-208 66t-69 190v17h205zM2175 813v-180q-240 0 -274 -154q45 25 100 25q101 0 159 -69t58 -183v-10q0 -119 -69 -189q-69 -69 -203 -69
t-205 82q-70 82 -70 217v16q0 221 113 369q60 84 154 114t237 31zM336 0h-213l1180 1597h213z" />
    <glyph glyph-name="fivesixteenths" unicode="&#xf217;" horiz-adv-x="2252" 
d="M1946 328q-45 0 -70 -37v-25q0 -104 66 -104h6q27 0 46 20t19 54v22q0 70 -61 70h-6zM1612 0h-527v176h162v373l-98 -66l-102 146l249 168h156v-621h160v-176zM33 1055h205q0 -94 63 -94h10q66 0 66 88v10q0 86 -76 86h-6q-51 0 -80 -41l-176 59l18 434h512v-178h-340
l-6 -110q49 14 94 14q129 0 196 -71t67 -189v-21q0 -120 -69 -190t-204 -70t-205 66t-69 190v17zM2175 813v-180q-240 0 -274 -154q45 25 100 25q101 0 159 -69t58 -183v-10q0 -119 -69 -189q-69 -69 -203 -69t-205 82q-70 82 -70 217v16q0 221 113 369q60 84 154 114
t237 31zM336 0h-213l1180 1597h213z" />
    <glyph glyph-name="sevensixteenths" unicode="&#xf218;" horiz-adv-x="2252" 
d="M1946 328q-45 0 -70 -37v-25q0 -104 66 -104h6q27 0 46 20t19 54v22q0 70 -61 70h-6zM27 1311v286h559v-127l-273 -671h-219l264 622l-90 -2h-63v-108h-178zM1612 0h-527v176h162v373l-98 -66l-102 146l249 168h156v-621h160v-176zM2175 813v-180q-240 0 -274 -154
q45 25 100 25q101 0 159 -69t58 -183v-10q0 -119 -69 -189q-69 -69 -203 -69t-205 82q-70 82 -70 217v16q0 221 113 369q60 84 154 114t237 31zM336 0h-213l1180 1597h213z" />
    <glyph glyph-name="ninesixteenths" unicode="&#xf219;" horiz-adv-x="2252" 
d="M1946 328q-45 0 -70 -37v-25q0 -104 66 -104h6q27 0 46 20t19 54v22q0 70 -61 70h-6zM305 1268q43 0 72 37v26q0 104 -66 105h-6q-27 0 -46 -20t-19 -56v-21q0 -72 61 -71h4zM1612 0h-527v176h162v373l-98 -66l-102 146l249 168h156v-621h160v-176zM2175 813v-180
q-240 0 -274 -154q45 25 100 25q101 0 159 -69t58 -183v-10q0 -119 -69 -189q-69 -69 -203 -69t-205 82q-70 82 -70 217v16q0 221 113 369q60 84 154 114t237 31zM76 782v181q170 2 235 79q23 29 39 76q-43 -25 -100 -24q-98 0 -157 68q-58 69 -58 184v10q1 120 69 188
t202 68t205 -82t71 -217v-15q0 -217 -113 -370q-61 -82 -155 -114t-238 -32zM336 0h-213l1180 1597h213z" />
    <glyph glyph-name="elevensixteenths" unicode="&#xf220;" horiz-adv-x="2867" 
d="M2560 328q-45 0 -70 -37v-25q0 -104 66 -104h6q27 0 46 20t20 54v22q0 70 -62 70h-6zM588 799h-527v176h162v373l-98 -66l-102 145l249 168h156v-620h160v-176zM1202 799h-526v176h162v373l-99 -66l-102 145l250 168h155v-620h160v-176zM2226 0h-526v176h162v373l-99 -66
l-102 146l250 168h155v-621h160v-176zM2789 813v-180q-236 0 -274 -154q45 25 100 25q101 0 159 -69t58 -183v-10q0 -119 -68 -189q-68 -69 -204 -69q-135 0 -205 82t-69 217v16q0 221 112 369q60 84 154 114t237 31zM950 0h-213l1180 1597h213z" />
    <glyph glyph-name="thirteensixteenths" unicode="&#xf221;" horiz-adv-x="2867" 
d="M2560 328q-45 0 -70 -37v-25q0 -104 66 -104h6q27 0 46 20t20 54v22q0 70 -62 70h-6zM2226 0h-526v176h162v373l-99 -66l-102 146l250 168h155v-621h160v-176zM588 799h-527v176h162v373l-98 -66l-102 145l249 168h156v-620h160v-176zM852 1055q0 -94 63 -94h11
q29 0 47 20t18 59v11q0 66 -65 65h-107v180h105q61 0 61 66v12q0 27 -17 43t-42 17h-11q-57 0 -57 -103h-205v19q0 262 269 262q141 0 204 -68t64 -147v-21q0 -111 -84 -170q88 -59 88 -170v-20q0 -84 -66 -159t-204 -75t-207 66q-70 66 -70 190v17h205zM2789 813v-180
q-236 0 -274 -154q45 25 100 25q101 0 159 -69t58 -183v-10q0 -119 -68 -189q-68 -69 -204 -69q-135 0 -205 82t-69 217v16q0 221 112 369q60 84 154 114t237 31zM950 0h-213l1180 1597h213z" />
    <glyph glyph-name="fifteensixteenths" unicode="&#xf222;" horiz-adv-x="2867" 
d="M2560 328q-45 0 -70 -37v-25q0 -104 66 -104h6q27 0 46 20t20 54v22q0 70 -62 70h-6zM2226 0h-526v176h162v373l-99 -66l-102 146l250 168h155v-621h160v-176zM588 799h-527v176h162v373l-98 -66l-102 145l249 168h156v-620h160v-176zM647 1055h205q0 -94 63 -94h11
q66 0 65 88v10q0 86 -76 86h-6q-51 0 -80 -41l-176 59l19 434h512v-178h-340l-6 -110q51 14 94 14q130 0 196 -71t66 -189v-21q0 -120 -69 -190t-203 -70t-205 66q-70 66 -70 190v17zM2789 813v-180q-236 0 -274 -154q45 25 100 25q101 0 159 -69t58 -183v-10
q0 -119 -68 -189q-68 -69 -204 -69q-135 0 -205 82t-69 217v16q0 221 112 369q60 84 154 114t237 31zM950 0h-213l1180 1597h213z" />
    </font>
</defs>
</svg>
